<?xml version="1.0" encoding="UTF-8"?>
<svg version="1.1" xmlns="http://www.w3.org/2000/svg" width="608" height="478">
<path d="M0 0 C200.64 0 401.28 0 608 0 C608 157.74 608 315.48 608 478 C407.36 478 206.72 478 0 478 C0 320.26 0 162.52 0 0 Z " fill="#3C80F4" transform="translate(0,0)"/>
<path d="M0 0 C200.64 0 401.28 0 608 0 C608 157.74 608 315.48 608 478 C407.36 478 206.72 478 0 478 C0 320.26 0 162.52 0 0 Z M221 50 C220.34 50.59941406 219.68 51.19882812 219 51.81640625 C212.37094085 57.97400214 208.83694518 65.5219615 206 74 C205.66009033 74.87519287 205.32018066 75.75038574 204.9699707 76.65209961 C203.86858464 80.4535864 203.77304999 83.63124918 203.8046875 87.5859375 C203.80893234 88.63861313 203.80893234 88.63861313 203.81326294 89.71255493 C203.82437488 91.93355028 203.84946166 94.15412845 203.875 96.375 C203.88504146 97.88931705 203.89416527 99.40364049 203.90234375 100.91796875 C203.92428446 104.61211258 203.95875125 108.30601551 204 112 C203.20645615 111.99333817 202.41291229 111.98667633 201.59532166 111.97981262 C194.05063066 111.91924965 186.50606052 111.87379903 178.96118832 111.84456348 C175.08396317 111.82902705 171.20694187 111.80801423 167.32983398 111.77368164 C163.57559318 111.74065197 159.82154619 111.7230571 156.0671711 111.71536827 C154.64771035 111.70990175 153.22825803 111.69923206 151.80888176 111.68280983 C139.30127772 111.54409094 126.59422323 112.42624555 115.375 118.4375 C114.26898438 119.01371094 113.16296875 119.58992188 112.0234375 120.18359375 C107.50931543 122.89556631 103.52699412 126.08111765 100 130 C100 130.66 100 131.32 100 132 C98.515 132.495 98.515 132.495 97 133 C95.54858116 134.78681741 95.54858116 134.78681741 94.3125 136.9375 C93.87550781 137.64777344 93.43851563 138.35804688 92.98828125 139.08984375 C91.84682609 140.93760992 91.84682609 140.93760992 92 143 C91.34 143 90.68 143 90 143 C89.19759151 144.95395654 88.40870691 146.91346768 87.625 148.875 C87.18414062 149.96554688 86.74328125 151.05609375 86.2890625 152.1796875 C82.33612967 163.34244398 82.70266572 174.56247445 82.70947266 186.25048828 C82.70348163 188.30479678 82.69667476 190.35910304 82.68911743 192.41340637 C82.67150675 197.97364067 82.66676407 203.53381333 82.66548586 209.09407282 C82.66406067 212.57477483 82.65978407 216.05546136 82.65449142 219.53615952 C82.63600601 231.69892108 82.62781877 243.86163891 82.62939453 256.02441406 C82.63059486 267.32946122 82.60950997 278.63431712 82.5779072 289.93931592 C82.55167937 299.67133097 82.54102999 309.40328381 82.54230535 319.1353339 C82.54281316 324.93616842 82.53723086 330.73683293 82.51594925 336.53763199 C82.49645753 341.99936277 82.49651669 347.46076329 82.51098251 352.92250633 C82.51305834 354.91537018 82.5084438 356.9082553 82.4962616 358.90108299 C82.38494303 378.3894656 84.97744065 398.53831961 99.2109375 413.2734375 C100.09652344 414.12808594 100.09652344 414.12808594 101 415 C101.85464844 415.88558594 101.85464844 415.88558594 102.7265625 416.7890625 C115.12155433 428.76209716 131.39197516 432.46851589 148.07383728 432.38095093 C149.46896481 432.3844142 150.8640896 432.38918323 152.25920874 432.39513266 C156.06499612 432.40758066 159.87055592 432.40150079 163.6763438 432.39217401 C167.79163471 432.38535818 171.90688775 432.39587729 176.02217102 432.40411377 C184.07327865 432.41742672 192.12430219 432.41458415 200.17541306 432.40587585 C206.72158428 432.39908962 213.26773199 432.39818664 219.81390572 432.4014473 C220.74702275 432.401907 221.68013979 432.40236669 222.6415331 432.40284032 C224.53739345 432.40379954 226.4332538 432.40477218 228.32911415 432.4057581 C246.09094744 432.41430497 263.85273423 432.40448914 281.6145599 432.388357 C296.83966153 432.37495666 312.06469453 432.37728093 327.28979492 432.39111328 C344.98826574 432.40718531 362.68669581 432.41347875 380.3851729 432.40427649 C382.2742081 432.40332089 384.16324331 432.40237777 386.05227852 432.4014473 C386.98161438 432.40098447 387.91095024 432.40052164 388.86844779 432.40004479 C395.40272027 432.39745961 401.93696681 432.40181576 408.47123528 432.40888596 C416.44019577 432.4173193 424.40906767 432.41498244 432.37801807 432.39904372 C436.44029023 432.3911853 440.50241492 432.38802769 444.56468582 432.39799118 C448.28987894 432.40698939 452.01478915 432.4019218 455.73995692 432.38605852 C457.71190322 432.3811674 459.68386946 432.39086122 461.65579456 432.40123022 C472.46537406 432.3304339 482.34855092 430.56022895 491.8125 425.1875 C492.4506665 424.83349121 493.08883301 424.47948242 493.74633789 424.11474609 C508.33024051 415.83724418 517.40569351 402.38698235 522.14051819 386.42105103 C524.78272944 376.69634561 524.55414773 366.95661017 524.50170898 356.95068359 C524.50550001 354.87106461 524.51100646 352.79144817 524.51808167 350.71183777 C524.53194958 345.10655092 524.52092845 339.501574 524.50437045 333.89630461 C524.49043608 328.00741603 524.49698939 322.11854393 524.50050354 316.22964478 C524.50319864 306.34608005 524.48978899 296.46263726 524.46655273 286.57910156 C524.43993279 275.17791092 524.43820327 263.77692384 524.4499411 252.37571275 C524.46074597 241.37181346 524.4545115 230.36798728 524.44038582 219.36409378 C524.434651 214.69695925 524.43468887 210.02987865 524.43945122 205.36274338 C524.44424797 199.86157681 524.43400813 194.36063121 524.41249657 188.85950661 C524.40696569 186.84926537 524.40642907 184.83900273 524.41144943 182.82876015 C524.45774585 161.62046133 520.90781821 144.12939429 505.63671875 128.3671875 C501.43157189 124.5919001 496.9409867 121.71506156 492 119 C490.72962891 118.27490234 490.72962891 118.27490234 489.43359375 117.53515625 C478.77526722 111.78066071 468.02262197 111.71757026 456.1484375 111.8046875 C454.638155 111.80842558 453.12787004 111.81126879 451.61758423 111.81326294 C447.67536522 111.82083693 443.73329759 111.8404305 439.7911377 111.8626709 C435.75531053 111.88326497 431.7194585 111.89229343 427.68359375 111.90234375 C419.78899364 111.9236834 411.89451574 111.95774234 404 112 C404.00425491 111.43701706 404.00850983 110.87403412 404.01289368 110.29399109 C404.02996581 107.69990805 404.0404107 105.1058369 404.05078125 102.51171875 C404.06099304 101.18376282 404.06099304 101.18376282 404.07141113 99.82897949 C404.12335869 82.45052281 400.99003986 67.72465072 390 54 C389.17628906 52.97132812 389.17628906 52.97132812 388.3359375 51.921875 C378.92225981 40.65984964 366.44889578 34.44582861 352 32 C348.78695946 31.73880669 345.59456587 31.71589268 342.37207031 31.7253418 C340.9969075 31.7176754 340.9969075 31.7176754 339.59396362 31.70985413 C336.58861607 31.69605068 333.58350032 31.69690827 330.578125 31.69921875 C328.46978675 31.69532605 326.36144927 31.6909902 324.25311279 31.68623352 C319.84189305 31.67879063 315.43075337 31.67904806 311.01953125 31.68432617 C305.396871 31.69011059 299.77454126 31.67320502 294.15193558 31.6499815 C289.79874795 31.63516931 285.44563848 31.63438273 281.09243011 31.63749123 C279.02101743 31.63698152 276.94959995 31.63181049 274.87821198 31.62167931 C253.38073869 31.52944745 236.91327757 34.28011296 221 50 Z " fill="#0E172A" transform="translate(0,0)"/>
<path d="M0 0 C1.36280214 -0.00274165 2.72560217 -0.00679463 4.08839697 -0.01204365 C7.82779037 -0.02262394 11.5669445 -0.01450587 15.30632746 -0.00329316 C19.34113068 0.00555114 23.37590267 -0.00289529 27.41070557 -0.00915527 C35.31243235 -0.01864371 43.21406781 -0.01204317 51.11578781 0.00010767 C60.31552831 0.01372769 69.51524706 0.01208983 78.71499508 0.00997434 C95.12775941 0.00678443 111.54048035 0.01845261 127.95323181 0.03804016 C143.88390932 0.05704742 159.81453596 0.0641269 175.745224 0.05854797 C193.08907297 0.05249214 210.43289958 0.05266343 227.77674669 0.06403381 C229.6255728 0.06524111 231.47439891 0.0664471 233.32322502 0.06765175 C234.68774937 0.06855706 234.68774937 0.06855706 236.07983987 0.06948065 C242.49460552 0.0733621 248.90936285 0.07296531 255.3241291 0.0710659 C263.13932037 0.06894526 270.95446706 0.07415817 278.76964576 0.08867946 C282.75807651 0.09593002 286.74644229 0.09999481 290.73487854 0.0954361 C294.38460309 0.09136594 298.03419338 0.09650727 301.68389755 0.10906217 C303.6324218 0.11338636 305.58096016 0.10789267 307.52948052 0.10207289 C309.2631439 0.11082118 309.2631439 0.11082118 311.03183079 0.11974621 C312.02914142 0.12061299 313.02645206 0.12147976 314.05398422 0.12237281 C319.78416011 0.65098391 324.65743028 3.46778255 328.78404236 7.3742218 C332.45996304 13.31105854 333.38009607 18.99103478 333.36509705 25.85371399 C333.37853149 26.75407883 333.39196594 27.65444366 333.4058075 28.58209229 C333.4434992 31.52865733 333.45159916 34.47430647 333.45591736 37.4210968 C333.46878335 39.48134222 333.48224081 41.54158402 333.4962616 43.6018219 C333.52013333 47.90543602 333.52763008 52.20872979 333.5252533 56.5124054 C333.52484529 62.0267103 333.5796424 67.53897234 333.64834213 73.0527916 C333.6927902 77.30107583 333.70093156 81.54886268 333.69881439 85.79735565 C333.70353255 87.83078868 333.72121501 89.86423478 333.75214386 91.89743805 C333.79133007 94.73719815 333.77986017 97.57247613 333.75572205 100.41230774 C333.77820007 101.24981064 333.8006781 102.08731354 333.82383728 102.95019531 C333.77208051 105.34518857 333.64813394 107.13698166 332.78404236 109.3742218 C330.35735307 111.5976138 327.74755333 112.98208756 324.78404236 114.3742218 C323.58908142 115.07418274 323.58908142 115.07418274 322.36997986 115.7882843 C315.89367306 119.33537813 309.31477606 122.67565113 302.72154236 125.9992218 C301.79970154 126.46666809 300.87786072 126.93411438 299.92808533 127.41572571 C293.98566211 130.39064141 287.97874099 132.97595025 281.78404236 135.3742218 C280.22042883 136.01735452 278.65779481 136.66287843 277.09654236 137.3117218 C256.76623342 145.39372443 235.29256923 151.44924041 213.78404236 155.3742218 C213.04476501 155.51311829 212.30548767 155.65201477 211.54380798 155.79512024 C176.43873242 162.28757329 141.06165241 161.44431336 105.78404236 157.3742218 C103.97176588 157.18071067 102.15928887 156.98906039 100.34654236 156.80000305 C94.41451399 156.16098997 88.67691301 155.42637567 82.88975525 153.9120636 C80.72123852 153.35818043 78.54597334 152.87361972 76.35826111 152.40156555 C56.55577196 148.03519718 37.25972995 141.73909588 18.78404236 133.3742218 C17.16247823 132.74036079 15.53758797 132.11492399 13.90904236 131.4992218 C7.32209589 128.89911135 1.0656529 125.59026945 -5.23841858 122.37910461 C-8.22340831 120.86228761 -11.21976124 119.3687784 -14.21595764 117.8742218 C-15.88262431 117.04088847 -17.54929097 116.20755514 -19.21595764 115.3742218 C-19.21595764 114.7142218 -19.21595764 114.0542218 -19.21595764 113.3742218 C-21.86824576 112.29896986 -24.49964218 111.27966029 -27.21595764 110.3742218 C-27.2854856 97.96103669 -27.33878326 85.54789795 -27.37139416 73.13455772 C-27.3870462 67.37046299 -27.40827632 61.60650155 -27.442276 55.84248352 C-27.4748855 50.279295 -27.49281413 44.71623464 -27.50058937 39.15295792 C-27.50612999 37.03108834 -27.51694944 34.90922572 -27.53314781 32.78741074 C-27.55494293 29.81407798 -27.55792366 26.841274 -27.55653381 23.86787415 C-27.56731964 22.9917749 -27.57810547 22.11567566 -27.58921814 21.21302795 C-27.55665105 14.76903895 -26.19272328 10.67154403 -21.90345764 5.6867218 C-14.97100403 -0.2784127 -8.79304515 -0.05133491 0 0 Z " fill="#0E172A" transform="translate(151.21595764160156,151.6257781982422)"/>
<path d="M0 0 C0.11624277 8.84093518 0.20489071 17.68160421 0.25906086 26.523139 C0.28507009 30.62939025 0.32030687 34.73511573 0.37719727 38.84106445 C0.43183036 42.80927707 0.46148566 46.77698644 0.47438622 50.74554634 C0.48357043 52.25374834 0.50150464 53.76192516 0.52865028 55.26991081 C0.6761488 63.80926057 0.62204902 71.09714396 -5 78 C-9.25736093 82.37475678 -12.36853893 84.82210944 -18.60585964 85.1276505 C-19.60354999 85.128897 -20.60124035 85.13014349 -21.62916374 85.13142776 C-22.78294828 85.13526891 -23.93673282 85.13911005 -25.12548053 85.1430676 C-27.02788381 85.14176787 -27.02788381 85.14176787 -28.96871948 85.14044189 C-30.32908052 85.1430258 -31.68944081 85.14603903 -33.04980004 85.1494453 C-36.79170213 85.15751541 -40.53358505 85.15930487 -44.27549481 85.16004276 C-48.30966535 85.16189326 -52.34382594 85.1694405 -56.37799072 85.17617798 C-65.20018804 85.18976113 -74.02238081 85.19578578 -82.84458685 85.20018864 C-88.35170558 85.20295066 -93.85882255 85.2071879 -99.36594009 85.21169281 C-114.60983355 85.22388464 -129.8537256 85.23418465 -145.09762383 85.2375679 C-146.56111661 85.23789725 -146.56111661 85.23789725 -148.05417491 85.23823325 C-149.52118643 85.23856067 -149.52118643 85.23856067 -151.01783454 85.2388947 C-152.99968267 85.23933817 -154.98153079 85.23978473 -156.96337891 85.24023438 C-157.94644591 85.2404558 -158.92951292 85.24067723 -159.94236983 85.24090537 C-175.87807097 85.24485494 -191.81372642 85.26231418 -207.7494099 85.2855939 C-224.10536682 85.30929503 -240.46130079 85.32176916 -256.81727517 85.32293582 C-266.00261748 85.32385319 -275.18790024 85.32962125 -284.37322617 85.34775543 C-292.19319789 85.36313959 -300.01309165 85.3682868 -307.83307563 85.36001733 C-311.82368059 85.35610506 -315.81412847 85.3570685 -319.8047142 85.37107468 C-323.45769546 85.38377887 -327.11040105 85.38264698 -330.76338173 85.37048396 C-332.71127631 85.36759076 -334.6591755 85.379489 -336.60703266 85.39190602 C-344.14278765 85.34905922 -348.82772813 84.72962929 -354.6875 79.6875 C-359.0322775 74.63816398 -360.37646933 70.52133605 -360.34057617 63.89306641 C-360.34101425 63.20944031 -360.34145233 62.52581421 -360.34190369 61.82147217 C-360.33982799 59.58120295 -360.31655624 57.34169957 -360.29296875 55.1015625 C-360.28736842 53.54072478 -360.28310039 51.97988176 -360.28010559 50.41903687 C-360.26869113 46.32543187 -360.23925366 42.23214989 -360.20599365 38.13867188 C-360.17521912 33.95577361 -360.16158453 29.77282277 -360.14648438 25.58984375 C-360.11438031 17.39308149 -360.06322561 9.19658101 -360 1 C-358.57377431 1.45818541 -357.14900628 1.92090953 -355.72485352 2.38549805 C-354.93127945 2.64268112 -354.13770538 2.8998642 -353.32008362 3.1648407 C-349.94767794 4.37880383 -347.05306341 6.03167627 -343.9375 7.8125 C-337.37167647 11.45691414 -330.69289725 14.18613029 -323.62890625 16.703125 C-320.7521031 17.73121827 -317.9412936 18.82131108 -315.125 20 C-289.44079692 30.34205848 -262.18857216 37.00812427 -234.78076172 40.62792969 C-232.89541095 40.8801926 -231.01160762 41.14424914 -229.12939453 41.41894531 C-177.62809558 48.84451909 -123.72584198 44.01900431 -74 29 C-72.71867187 28.68804687 -71.43734375 28.37609375 -70.1171875 28.0546875 C-65.6072996 26.94622396 -61.2529561 25.47999458 -56.875 23.9375 C-56.01680664 23.63513428 -55.15861328 23.33276855 -54.27441406 23.02124023 C-38.36999252 17.33637161 -22.97500732 10.80536938 -8 3 C-2.24434389 0 -2.24434389 0 0 0 Z " fill="#0E172A" transform="translate(484,307)"/>
<path d="M0 0 C0.85930618 -0.00365067 1.71861237 -0.00730133 2.60395813 -0.01106262 C5.4321394 -0.01913976 8.2597426 -0.00558159 11.08789062 0.0090332 C13.06034342 0.00955215 15.03279674 0.00903311 17.00524902 0.00752258 C21.13427476 0.00761218 25.26310473 0.01801607 29.39208984 0.03613281 C34.6780595 0.05881938 39.96374329 0.05936266 45.24974823 0.05261517 C49.32129445 0.04926968 53.39277579 0.05591623 57.46430969 0.0657444 C59.41310791 0.06958667 61.36191336 0.07074866 63.31071472 0.06915855 C66.03670946 0.06878665 68.76234119 0.08144306 71.48828125 0.09765625 C72.28949905 0.09517883 73.09071686 0.09270142 73.91621399 0.09014893 C81.19776065 0.15907708 86.27798929 1.80741225 91.70117188 6.7277832 C100.07971278 15.657823 97.24414062 29.38731903 97.24414062 40.37231445 C57.31414062 40.37231445 17.38414062 40.37231445 -23.75585938 40.37231445 C-23.75585938 13.10915656 -23.75585938 13.10915656 -17.38085938 5.55981445 C-11.71524948 0.83847287 -7.11431377 -0.06787162 0 0 Z " fill="#0E172A" transform="translate(266.755859375,71.627685546875)"/>
<path d="M0 0 C4.53696142 3.84596129 7.72918601 6.71471552 8.23828125 12.890625 C8.39316641 19.90121651 8.42601512 24.4391092 4 30 C-1.03635014 35.12983228 -4.63283807 37.11463249 -11.875 37.25 C-17.19464191 37.16419932 -20.74645311 36.24271253 -24.625 32.3828125 C-30.07571469 26.27696384 -31.41594113 22.13885241 -31.24609375 13.90625 C-30.73879243 7.91526296 -27.77457686 4.21863015 -23.5234375 0.2578125 C-16.90881933 -5.20348763 -7.01465896 -4.10291373 0 0 Z " fill="#3D80F3" transform="translate(315,235)"/>
<path d="M0 0 C0 4.52711238 -2.54941828 6.42097295 -5.52734375 9.65625 C-9.59428158 13.51116738 -14.13037803 16.2689253 -19 19 C-20.27423828 19.72896484 -20.27423828 19.72896484 -21.57421875 20.47265625 C-31.66375567 25.90548382 -41.62442315 26.29556154 -52.92666626 26.27415466 C-54.31807916 26.27861469 -55.70948953 26.28393123 -57.10089624 26.29002339 C-60.90116472 26.30412208 -64.70135111 26.30586823 -68.50164199 26.30542648 C-72.60953042 26.3070819 -76.71738573 26.32016182 -80.82525635 26.33161926 C-89.79652632 26.35441185 -98.76777255 26.36238358 -107.73906755 26.36744571 C-113.34714006 26.37070921 -118.95520574 26.37723559 -124.56327438 26.3844471 C-140.10934794 26.40400499 -155.65541519 26.42041413 -171.20150185 26.42332363 C-172.69201645 26.42360499 -172.69201645 26.42360499 -174.21264245 26.42389202 C-176.22680561 26.42425826 -178.24096876 26.42462196 -180.25513192 26.42498314 C-181.25487881 26.42516595 -182.25462571 26.42534876 -183.28466797 26.42553711 C-184.78613168 26.42580793 -184.78613168 26.42580793 -186.317928 26.42608423 C-202.53105775 26.4296246 -218.74405458 26.4566421 -234.95713826 26.494035 C-251.62748213 26.53217295 -268.29776014 26.55148151 -284.96814859 26.55178314 C-294.3180822 26.55236645 -303.66785718 26.56077674 -313.01774979 26.58978081 C-320.98006256 26.61436813 -328.94215883 26.62152813 -336.90449937 26.60653328 C-340.96129331 26.5993945 -345.01766037 26.60008954 -349.07440567 26.62294388 C-367.61971541 26.72104996 -383.58887517 26.68928745 -400 17 C-398 16 -398 16 -395.9765625 16.48828125 C-394.81253906 16.89626953 -394.81253906 16.89626953 -393.625 17.3125 C-392.85414063 17.57675781 -392.08328125 17.84101563 -391.2890625 18.11328125 C-389 19 -389 19 -387.0390625 20.03515625 C-384.62964083 21.17524658 -382.36809216 21.64271987 -379.75 22.125 C-378.85796875 22.29257812 -377.9659375 22.46015625 -377.046875 22.6328125 C-376.37140625 22.75398438 -375.6959375 22.87515625 -375 23 C-375 23.66 -375 24.32 -375 25 C-332.65459552 24.94109271 -290.30924421 24.86652426 -247.96390568 24.77101372 C-242.96226549 24.75974584 -237.96062503 24.74860734 -232.95898438 24.73754883 C-231.46540796 24.7342433 -231.46540796 24.7342433 -229.94165829 24.730871 C-213.82872273 24.69551887 -197.71578722 24.67064297 -181.60282728 24.64965298 C-165.06387685 24.62787433 -148.52497665 24.59480429 -131.98606896 24.55129844 C-121.78440946 24.52481731 -111.58281252 24.50709588 -101.38112035 24.50065396 C-94.38114204 24.49538925 -87.38124239 24.47913594 -80.38130626 24.45433434 C-76.34545027 24.44035643 -72.30973499 24.43113462 -68.2738533 24.43499184 C-64.57225921 24.43842214 -60.87096475 24.42792281 -57.16943195 24.40676448 C-55.20990051 24.39906876 -53.2503282 24.40590572 -51.29079604 24.41341704 C-41.19371286 24.33299952 -31.93282136 22.93655917 -23 18 C-22.34 18 -21.68 18 -21 18 C-21 17.34 -21 16.68 -21 16 C-20.13375 15.773125 -19.2675 15.54625 -18.375 15.3125 C-15.43184642 14.16794028 -14.04238317 13.36813118 -11.75 11.375 C-9 9 -9 9 -7 9 C-7 8.01 -7 7.02 -7 6 C-6.34 6 -5.68 6 -5 6 C-4.731875 5.38125 -4.46375 4.7625 -4.1875 4.125 C-3 2 -3 2 0 0 Z " fill="#497FDB" transform="translate(511,406)"/>
<path d="M0 0 C0.33 0 0.66 0 1 0 C1.06968864 9.11904592 1.12290666 18.23799934 1.15543652 27.35725403 C1.1710538 31.59226934 1.19221954 35.82710168 1.22631836 40.06201172 C1.25905307 44.15337915 1.2768826 48.24457122 1.28463173 52.33605957 C1.29015002 53.89248411 1.30092569 55.44889968 1.31719017 57.00524902 C1.47651286 72.89098319 1.47651286 72.89098319 -2 79 C-2.67509109 79.16588623 -3.35018219 79.33177246 -4.04573059 79.50268555 C-4.6906395 79.66679932 -5.3355484 79.83091309 -6 80 C-6.33 80.99 -6.66 81.98 -7 83 C-13.97800097 87.68473972 -20.33761888 87.55075051 -28.55690002 87.46324158 C-29.9323749 87.46300314 -31.307851 87.46452206 -32.68332237 87.46763808 C-36.44865815 87.47106334 -40.21349363 87.44949592 -43.97872722 87.42369664 C-48.04485693 87.40021297 -52.11099803 87.39995891 -56.17718506 87.39672852 C-64.13686827 87.38668202 -72.09632565 87.3550495 -80.05591316 87.31586253 C-89.32655233 87.27089755 -98.59721253 87.24618004 -107.86792516 87.22199697 C-124.40934803 87.17804478 -140.95063331 87.11396104 -157.49194336 87.03930664 C-173.5407489 86.96687821 -189.5895035 86.91128617 -205.63842773 86.87329102 C-223.11859254 86.83188646 -240.59868243 86.78107974 -258.07876915 86.71397978 C-259.94276581 86.70683738 -261.8067625 86.69970004 -263.6707592 86.69256783 C-264.58786303 86.6890459 -265.50496687 86.68552398 -266.44986172 86.68189533 C-272.91128904 86.65767111 -279.37271549 86.63997279 -285.83416939 86.62464714 C-293.70823305 86.60571269 -301.58216897 86.57592743 -309.45613641 86.53238713 C-313.47318576 86.51042062 -317.4901051 86.49317622 -321.5072155 86.48882484 C-325.18543526 86.48469356 -328.86332209 86.46677649 -332.54142856 86.4379136 C-334.50027764 86.42606612 -336.4591982 86.42879646 -338.41808039 86.43206543 C-344.63665172 86.36863708 -349.61055362 86.27742577 -355 83 C-356.4375 79.8125 -356.4375 79.8125 -357 77 C-356.34 77.33 -355.68 77.66 -355 78 C-355 78.66 -355 79.32 -355 80 C-349.98723688 82.59921051 -345.96281453 84.24982168 -340.24499512 84.25168228 C-338.51040668 84.25950552 -338.51040668 84.25950552 -336.74077606 84.26748681 C-335.47473793 84.26302537 -334.2086998 84.25856392 -332.90429688 84.25396729 C-331.54235925 84.25627194 -330.18042286 84.25944849 -328.81848907 84.26342177 C-325.07688572 84.27177783 -321.33538426 84.26764083 -317.59378052 84.26144934 C-313.55828152 84.25692917 -309.52280019 84.26390645 -305.48730469 84.26940918 C-297.58211924 84.27830947 -289.67697173 84.27637834 -281.77178478 84.2705839 C-275.34793473 84.26606992 -268.92409532 84.26545336 -262.50024414 84.26763153 C-261.586496 84.267938 -260.67274785 84.26824446 -259.73131037 84.26856022 C-257.87513669 84.26919966 -256.01896302 84.26984808 -254.16278934 84.2705054 C-236.75124401 84.27621056 -219.33971972 84.26964789 -201.92817783 84.25890467 C-186.98335801 84.24996899 -172.03856926 84.25152098 -157.09375 84.26074219 C-139.74515013 84.27144154 -122.39656871 84.27566122 -105.047966 84.26951766 C-103.19856262 84.26888055 -101.34915924 84.26825181 -99.49975586 84.26763153 C-98.58977797 84.26732298 -97.67980008 84.26701443 -96.7422471 84.26669653 C-90.32498641 84.26496858 -83.9077374 84.26788684 -77.49047852 84.27259064 C-69.67160735 84.27819574 -61.85277635 84.27669082 -54.0339098 84.26602915 C-50.04345806 84.26076745 -46.05307333 84.25872417 -42.06262207 84.26532745 C-38.41101175 84.27127871 -34.75953066 84.26802546 -31.10793209 84.25737235 C-29.15836258 84.25407332 -27.20878413 84.26061668 -25.25922394 84.26748681 C-24.10283165 84.26227132 -22.94643936 84.25705582 -21.75500488 84.25168228 C-20.75715218 84.25135758 -19.75929947 84.25103287 -18.7312088 84.25069833 C-13.08106712 83.73207043 -8.84406863 81.09590707 -5 77 C0.02871047 69.5290346 -0.39548494 61.81386906 -0.390625 53.125 C-0.37562529 51.58941926 -0.3588944 50.05385455 -0.34051514 48.51831055 C-0.29702973 44.50050062 -0.27688469 40.48290825 -0.26177979 36.46490479 C-0.24214036 32.35537959 -0.20017831 28.24608704 -0.16015625 24.13671875 C-0.08505827 16.09120704 -0.03464382 8.04578718 0 0 Z " fill="#4680DA" transform="translate(484,307)"/>
<path d="M0 0 C0.85930618 -0.00365067 1.71861237 -0.00730133 2.60395813 -0.01106262 C5.4321394 -0.01913976 8.2597426 -0.00558159 11.08789062 0.0090332 C13.06034342 0.00955215 15.03279674 0.00903311 17.00524902 0.00752258 C21.13427476 0.00761218 25.26310473 0.01801607 29.39208984 0.03613281 C34.6780595 0.05881938 39.96374329 0.05936266 45.24974823 0.05261517 C49.32129445 0.04926968 53.39277579 0.05591623 57.46430969 0.0657444 C59.41310791 0.06958667 61.36191336 0.07074866 63.31071472 0.06915855 C66.03670946 0.06878665 68.76234119 0.08144306 71.48828125 0.09765625 C72.28949905 0.09517883 73.09071686 0.09270142 73.91621399 0.09014893 C81.19776065 0.15907708 86.27798929 1.80741225 91.70117188 6.7277832 C100.07971278 15.657823 97.24414062 29.38731903 97.24414062 40.37231445 C57.31414062 40.37231445 17.38414062 40.37231445 -23.75585938 40.37231445 C-23.75585938 13.10915656 -23.75585938 13.10915656 -17.38085938 5.55981445 C-11.71524948 0.83847287 -7.11431377 -0.06787162 0 0 Z M-6.75585938 1.37231445 C-7.08585937 2.69231445 -7.41585938 4.01231445 -7.75585938 5.37231445 C-8.35914063 5.34008789 -8.96242188 5.30786133 -9.58398438 5.2746582 C-12.22790929 5.31303776 -14.25889345 5.47685081 -16.75585938 6.37231445 C-18.78213767 9.1611706 -19.74709158 12.09982368 -20.75585938 15.37231445 C-21.08585938 16.03231445 -21.41585937 16.69231445 -21.75585938 17.37231445 C-21.75585938 24.63231445 -21.75585938 31.89231445 -21.75585938 39.37231445 C16.85414063 39.37231445 55.46414063 39.37231445 95.24414062 39.37231445 C96.31845339 21.10211559 96.31845339 21.10211559 91.24414062 8.37231445 C90.58414063 8.37231445 89.92414063 8.37231445 89.24414062 8.37231445 C89.24414062 7.71231445 89.24414062 7.05231445 89.24414062 6.37231445 C88.24898838 4.54115551 88.24898838 4.54115551 86.24414062 3.37231445 C81.89904846 3.42298066 81.89904846 3.42298066 78.24414062 5.37231445 C77.74914062 3.39231445 77.74914062 3.39231445 77.24414062 1.37231445 C49.52414062 1.37231445 21.80414063 1.37231445 -6.75585938 1.37231445 Z " fill="#051E4C" transform="translate(266.755859375,71.627685546875)"/>
<path d="M0 0 C1.15041914 -0.00322445 2.30083829 -0.00644889 3.48611861 -0.00977105 C4.76089527 -0.00822245 6.03567193 -0.00667385 7.34907818 -0.00507832 C8.70842559 -0.00694507 10.06777246 -0.00924523 11.42711848 -0.01194364 C15.17547217 -0.01808493 18.92380364 -0.01792532 22.67216122 -0.01674926 C26.70975442 -0.01654584 30.74734037 -0.02205845 34.78493023 -0.02680683 C42.70054234 -0.03512694 50.616147 -0.03786229 58.53176311 -0.03841921 C64.96426407 -0.03889377 71.39676256 -0.04094553 77.82926273 -0.04411983 C96.05350374 -0.0529305 114.27773886 -0.05753862 132.50198201 -0.05678936 C133.48524613 -0.0567494 134.46851024 -0.05670945 135.48157024 -0.05666828 C136.95826072 -0.05660696 136.95826072 -0.05660696 138.46478333 -0.0565444 C154.42067579 -0.05613792 170.37654465 -0.06570684 186.33243028 -0.07980665 C202.70300907 -0.09415911 219.07357635 -0.10107744 235.44416159 -0.10021287 C244.64010596 -0.09988049 253.83602559 -0.10264563 263.0319643 -0.11339092 C270.86188359 -0.12248113 278.69176694 -0.12468343 286.52168921 -0.1178815 C290.51819857 -0.11460865 294.51463892 -0.11458705 298.51114178 -0.12323475 C302.16841849 -0.13106715 305.82557111 -0.1297019 309.48284467 -0.12095062 C311.4355429 -0.11867673 313.38824488 -0.12626985 315.34092838 -0.13419026 C317.07829195 -0.12729207 317.07829195 -0.12729207 318.85075378 -0.12025452 C319.85023271 -0.12047188 320.84971163 -0.12068925 321.8794778 -0.12091321 C326.32312747 0.28458585 329.76556602 2.01051101 333.3641386 4.56613445 C333.95710735 4.97734539 334.5500761 5.38855633 335.1610136 5.8122282 C336.6141386 7.12863445 336.6141386 7.12863445 337.6141386 10.12863445 C336.9541386 10.12863445 336.2941386 10.12863445 335.6141386 10.12863445 C335.2841386 9.46863445 334.9541386 8.80863445 334.6141386 8.12863445 C333.6241386 7.79863445 332.6341386 7.46863445 331.6141386 7.12863445 C331.6141386 6.46863445 331.6141386 5.80863445 331.6141386 5.12863445 C329.3041386 4.79863445 326.9941386 4.46863445 324.6141386 4.12863445 C324.2841386 3.13863445 323.9541386 2.14863445 323.6141386 1.12863445 C282.63603501 1.21042226 241.65796681 1.30259831 200.67991859 1.40868606 C195.84093483 1.42120478 191.00195085 1.43363758 186.16296673 1.44601727 C184.71794853 1.44971626 184.71794853 1.44971626 183.24373804 1.45348997 C167.65000804 1.49320233 152.05627081 1.52595642 136.46251978 1.55613427 C120.45921415 1.58725978 104.4559392 1.6258739 88.45266807 1.67142451 C78.57960611 1.69929094 68.70656656 1.721332 58.83347587 1.73589696 C52.0610618 1.74644757 45.28869115 1.76427907 38.51630981 1.78780149 C34.61034477 1.80115409 30.70444052 1.81132952 26.79845142 1.81284809 C23.21791286 1.8143112 19.63752054 1.82497846 16.05702697 1.84276886 C14.15765376 1.84986764 12.25825188 1.84729209 10.35886776 1.84429872 C3.54228317 1.88874157 -2.764471 2.47645995 -9.3858614 4.12863445 C-9.7158614 5.11863445 -10.0458614 6.10863445 -10.3858614 7.12863445 C-11.7058614 6.46863445 -13.0258614 5.80863445 -14.3858614 5.12863445 C-5.45881613 0.00384921 -5.45881613 0.00384921 0 0 Z " fill="#031846" transform="translate(143.38586139678955,151.87136554718018)"/>
<path d="M0 0 C-7.45480456 4.96986971 -15.43355302 4.27932547 -24.09117126 4.24050903 C-25.53676875 4.24138173 -26.98236592 4.2431339 -28.42796141 4.24568737 C-32.39133593 4.25015226 -36.35460205 4.24216903 -40.31796277 4.23213124 C-44.59531656 4.22348667 -48.87266434 4.22641762 -53.15002441 4.22793579 C-60.55786014 4.228984 -67.96566061 4.22271404 -75.37348747 4.21146011 C-86.08392986 4.19519947 -96.79435522 4.18999653 -107.50480861 4.18748413 C-124.88220303 4.18310792 -142.25957867 4.1698008 -159.63696289 4.15087891 C-176.51651923 4.13251821 -193.39607046 4.11836263 -210.27563477 4.10986328 C-211.31625716 4.10933783 -212.35687955 4.10881239 -213.42903595 4.10827102 C-218.64958235 4.10566092 -223.87012878 4.10313351 -229.09067523 4.10064721 C-272.3937965 4.079917 -315.69689728 4.04469346 -359 4 C-359 3.01 -359 2.02 -359 1 C-358.13340842 1.1622893 -357.26681684 1.3245786 -356.37396491 1.49178576 C-353.18962784 1.9714367 -350.2326459 2.12748973 -347.01656151 2.13142776 C-345.8346279 2.13526891 -344.65269429 2.13911005 -343.43494451 2.1430676 C-341.50072745 2.14176787 -341.50072745 2.14176787 -339.5274353 2.14044189 C-338.13662593 2.14302734 -336.74581729 2.146041 -335.35500968 2.1494453 C-331.53799744 2.15749751 -327.72100403 2.15930387 -323.90398431 2.16004276 C-319.78520725 2.16189643 -315.66643989 2.16944536 -311.54766846 2.17617798 C-302.5433743 2.18974935 -293.53908461 2.1957842 -284.53478193 2.20018864 C-278.91001383 2.20295317 -273.28524744 2.20719092 -267.6604805 2.21169281 C-252.08024643 2.22388409 -236.50001374 2.23418357 -220.91977501 2.2375679 C-219.92295188 2.23778747 -218.92612874 2.23800703 -217.89909885 2.23823325 C-216.89992054 2.23845153 -215.90074223 2.23866981 -214.8712858 2.2388947 C-212.84664496 2.23933816 -210.82200412 2.23978473 -208.79736328 2.24023438 C-207.79307622 2.2404558 -206.78878916 2.24067723 -205.75406916 2.24090537 C-189.4862896 2.24485218 -173.21855485 2.26230324 -156.9507926 2.2855939 C-140.23991954 2.30932538 -123.52906895 2.32177058 -106.81817877 2.32293582 C-97.43929135 2.32385159 -88.06046234 2.32957912 -78.68159103 2.34775543 C-70.69422186 2.36318069 -62.70692915 2.36826259 -54.71954791 2.36001733 C-50.64717611 2.35611936 -46.57495816 2.35699851 -42.50260544 2.37107468 C-38.76797386 2.38386498 -35.03361095 2.3825715 -31.29897948 2.37048396 C-29.32181414 2.36761923 -27.34464393 2.37942376 -25.36751592 2.39190602 C-18.32507117 2.35315403 -12.17232715 1.58328628 -5.41753829 -0.45432591 C-3 -1 -3 -1 0 0 Z " fill="#011945" transform="translate(487,429)"/>
<path d="M0 0 C1.17131952 -0.00260775 2.34263903 -0.00521549 3.54945308 -0.00790226 C4.84757543 -0.00567154 6.14569777 -0.00344082 7.48315716 -0.0011425 C8.86725315 -0.00229373 10.25134883 -0.00388126 11.63544387 -0.00586975 C15.45220913 -0.01006301 19.26894955 -0.00797237 23.08571494 -0.00488353 C27.19692668 -0.00262958 31.30813402 -0.00610906 35.4193449 -0.00886345 C43.47933964 -0.01332054 51.5393251 -0.01234484 59.59932021 -0.00945081 C66.14909777 -0.00719607 72.69887272 -0.00688456 79.24865055 -0.00797462 C80.64486072 -0.00820447 80.64486072 -0.00820447 82.06927716 -0.00843897 C83.95999744 -0.00875868 85.85071772 -0.00908289 87.74143799 -0.00941156 C105.49060416 -0.01226629 123.23976517 -0.00897968 140.98893049 -0.00361119 C156.22542721 0.00085464 171.46191631 0.00008272 186.6984129 -0.00452995 C204.37769642 -0.00987963 222.05697542 -0.01198928 239.73625964 -0.00891769 C241.62109673 -0.00859913 243.50593382 -0.00828476 245.39077091 -0.00797462 C246.78194218 -0.00774321 246.78194218 -0.00774321 248.20121792 -0.00750712 C254.74317457 -0.00664299 261.28512834 -0.00810268 267.82708454 -0.01045418 C275.79972793 -0.01325683 283.77236148 -0.01250415 291.74500374 -0.00717343 C295.81440303 -0.00454239 299.8837859 -0.00352128 303.95318508 -0.00682259 C307.67704613 -0.0097979 311.40087549 -0.00817202 315.12473365 -0.00284503 C317.11321762 -0.00119522 319.10170378 -0.00446751 321.09018546 -0.00790226 C322.8588996 -0.00399064 322.8588996 -0.00399064 324.66334534 0 C325.68105084 0.00016235 326.69875634 0.0003247 327.7473014 0.00049198 C330.43946344 0.12218115 332.89830034 0.52111532 335.52043438 1.12584114 C335.52043438 2.44584114 335.52043438 3.76584114 335.52043438 5.12584114 C334.65418438 4.66177864 334.65418438 4.66177864 333.77043438 4.18834114 C329.77077768 2.29961437 326.2971051 1.99991795 321.89127064 1.99441338 C320.7374861 1.99057223 319.58370156 1.98673109 318.39495385 1.98277354 C317.12668499 1.98364002 315.85841614 1.98450651 314.5517149 1.98539925 C313.19135386 1.98281535 311.83099357 1.97980211 310.47063434 1.97639585 C306.72873225 1.96832573 302.98684933 1.96653627 299.24493957 1.96579838 C295.21076903 1.96394788 291.17660844 1.95640064 287.14244366 1.94966316 C278.32024634 1.93608001 269.49805357 1.93005537 260.67584753 1.9256525 C255.1687288 1.92289048 249.66161183 1.91865324 244.15449429 1.91414833 C228.91060083 1.9019565 213.66670878 1.89165649 198.42281055 1.88827324 C197.4471487 1.88805367 196.47148684 1.88783411 195.46625947 1.88760789 C194.48825179 1.88738961 193.51024411 1.88717133 192.50259984 1.88694644 C190.52075171 1.88650297 188.53890359 1.88605641 186.55705547 1.88560677 C185.08245496 1.88527462 185.08245496 1.88527462 183.57806455 1.88493577 C167.64236341 1.8809862 151.70670796 1.86352696 135.77102448 1.84024724 C119.41506756 1.81654611 103.05913359 1.80407198 86.70315921 1.80290532 C77.5178169 1.80198795 68.33253414 1.79621989 59.14720821 1.77808571 C51.32723649 1.76270155 43.50734273 1.75755434 35.68735875 1.76582381 C31.69675379 1.76973609 27.70630591 1.76877264 23.71572018 1.75476646 C20.06273892 1.74206227 16.41003333 1.74319416 12.75705265 1.75535718 C10.80915806 1.75825038 8.86125887 1.74635214 6.91340172 1.73393512 C1.00672562 1.76751931 -3.37860812 1.79978743 -8.47956562 5.12584114 C-9.46956562 5.45584114 -10.45956562 5.78584114 -11.47956562 6.12584114 C-11.80956562 7.11584114 -12.13956562 8.10584114 -12.47956562 9.12584114 C-12.80956562 8.13584114 -13.13956562 7.14584114 -13.47956562 6.12584114 C-6.25539212 0.00099839 -6.25539212 0.00099839 0 0 Z " fill="#4680D9" transform="translate(140.47956562042236,150.87415885925293)"/>
<path d="M0 0 C3.27226044 -0.15582193 5.73480145 -0.09230423 8.84854281 0.99145544 C12.03748699 2.01199677 14.46594386 2.25398131 17.79831505 2.26171303 C19.50916473 2.27291127 19.50916473 2.27291127 21.25457704 2.28433573 C23.11936234 2.28143363 23.11936234 2.28143363 25.02182007 2.2784729 C26.36343714 2.28347818 27.7050512 2.28935465 29.04666102 2.29602563 C32.72723035 2.31181163 36.40772331 2.31525554 40.0883224 2.31667423 C44.05964626 2.32037072 48.03092835 2.33552745 52.00222778 2.34928894 C58.88076718 2.37155775 65.75929171 2.38657332 72.63785934 2.39665604 C82.58309587 2.41124443 92.52828061 2.43678171 102.47348674 2.46498732 C118.60910114 2.51045239 134.744723 2.54706839 150.88037109 2.578125 C166.55421254 2.6083117 182.22803574 2.64266254 197.90185547 2.68261719 C198.8680657 2.68507874 199.83427592 2.68754028 200.82976525 2.69007643 C205.6769807 2.70245105 210.52419594 2.71490758 215.37141109 2.72740483 C255.58091543 2.83096837 295.79044193 2.92017304 336 3 C336 3.33 336 3.66 336 4 C294.06209378 4.06864167 252.12419403 4.12151635 210.18624278 4.15319599 C205.23695473 4.15694818 200.28766679 4.16083114 195.33837891 4.16479492 C194.35304989 4.16558185 193.36772088 4.16636878 192.35253341 4.16717956 C176.3907158 4.1802394 160.42893054 4.20389643 144.46713214 4.23145839 C128.0932255 4.25949649 111.71933583 4.27617288 95.34540617 4.28226548 C85.23889869 4.28638524 75.13248266 4.29940494 65.02600332 4.3237494 C58.0989844 4.3395869 51.17201288 4.34440487 44.24497716 4.34050413 C40.24629493 4.33857949 36.24777271 4.34156436 32.2491188 4.35761642 C28.58858316 4.37220403 24.9283153 4.3729599 21.26776738 4.36269668 C19.31570058 4.36082686 17.36363697 4.37377586 15.41161573 4.38724393 C4.89988277 4.3331846 4.89988277 4.3331846 0 1 C0 0.67 0 0.34 0 0 Z " fill="#031847" transform="translate(132,388)"/>
<path d="M0 0 C0.33 0.99 0.66 1.98 1 3 C1.66 3 2.32 3 3 3 C3 76.92 3 150.84 3 227 C2.34 227 1.68 227 1 227 C1.0825 227.969375 1.165 228.93875 1.25 229.9375 C1.26675568 234.08453187 -0.19536202 237.09493283 -1.9765625 240.77734375 C-3.36294503 243.78822795 -4.18124075 246.79319292 -5 250 C-6.32 250 -7.64 250 -9 250 C-9 251.32 -9 252.64 -9 254 C-10.65 254.33 -12.3 254.66 -14 255 C-13.54109375 254.29875 -13.0821875 253.5975 -12.609375 252.875 C-1.29765381 235.38460756 1.61093662 220.46696415 1.4699707 199.87133789 C1.47048054 197.78360892 1.47274287 195.69587976 1.47660828 193.6081543 C1.48199025 187.98252055 1.46271885 182.35722082 1.43850732 176.73164678 C1.41709322 170.82708519 1.41780139 164.92252332 1.41581726 159.01792908 C1.4093874 149.11337594 1.38820318 139.2089471 1.35668945 129.30444336 C1.31632374 116.60132838 1.29898619 103.89829407 1.28938007 91.19512272 C1.2810732 80.25028146 1.2638461 69.30545716 1.24434257 58.36063075 C1.24029789 56.0164459 1.23655767 53.67226051 1.2331202 51.32807469 C1.22331694 44.65001318 1.20878893 37.97199957 1.1862812 31.2939682 C1.18017653 29.27356079 1.17571654 27.25314763 1.17303848 25.23273277 C1.16903486 22.47091905 1.15889581 19.7091932 1.14717102 16.94740295 C1.14735538 16.15216549 1.14753975 15.35692804 1.14772969 14.53759247 C1.11839785 9.61166338 0.69579525 4.87790271 0 0 Z " fill="#041940" transform="translate(522,157)"/>
<path d="M0 0 C1.42622569 0.45818541 2.85099372 0.92090953 4.27514648 1.38549805 C5.06872055 1.64268112 5.86229462 1.8998642 6.67991638 2.1648407 C10.05232206 3.37880383 12.94693659 5.03167627 16.0625 6.8125 C22.6220693 10.45344267 29.29382647 13.18187128 36.3515625 15.6953125 C39.33924363 16.76371239 42.26089829 17.90321482 45.1875 19.125 C50.99328872 21.48701319 56.99259683 23.22979342 63 25 C60.35261084 26.4606285 59.10551666 27 56 27 C55.34 27.20625 54.68 27.4125 54 27.625 C52 28 52 28 49 26 C50.65 25.67 52.3 25.34 54 25 C49.34201396 23.79534844 44.76350585 22.71452588 40 22 C40 21.34 40 20.68 40 20 C36.99049877 18.38274466 34.02896392 17.32417377 30.75 16.375 C29.85796875 16.11460937 28.9659375 15.85421875 28.046875 15.5859375 C27.37140625 15.39257812 26.6959375 15.19921875 26 15 C26 14.34 26 13.68 26 13 C25.2575 13.061875 24.515 13.12375 23.75 13.1875 C20.43149017 12.96123797 19.59041675 12.00319248 17 10 C15.37547798 9.08604127 13.72814469 8.21167206 12.0625 7.375 C11.22847656 6.94960938 10.39445313 6.52421875 9.53515625 6.0859375 C7.00799627 5.00342521 4.69334363 4.49705122 2 4 C1.93022052 12.18909442 1.87704789 20.37806279 1.84456348 28.56738186 C1.82896571 32.37079372 1.80783652 36.17400085 1.77368164 39.97729492 C1.74087615 43.65370229 1.7231028 47.32991383 1.71536827 51.00645638 C1.70986249 52.40296571 1.69911186 53.79946539 1.68280983 55.19589043 C1.59393582 63.1306797 1.94227681 69.63254469 5 77 C1.58368849 73.89426226 0.11689405 71.5253925 -0.24050903 66.86151123 C-0.23606781 65.6268512 -0.23162659 64.39219116 -0.22705078 63.12011719 C-0.22734283 62.43678314 -0.22763489 61.7534491 -0.22793579 61.04940796 C-0.22654624 58.79843294 -0.21100302 56.54779196 -0.1953125 54.296875 C-0.19158103 52.73317648 -0.18873469 51.16947562 -0.18673706 49.60577393 C-0.17911114 45.49578362 -0.15947164 41.3859353 -0.1373291 37.27600098 C-0.11684822 33.07985352 -0.10773055 28.88368306 -0.09765625 24.6875 C-0.07622472 16.45826827 -0.04210139 8.22915181 0 0 Z " fill="#041A42" transform="translate(124,308)"/>
<path d="M0 0 C-1.65 0.33 -3.3 0.66 -5 1 C-5.33 1.99 -5.66 2.98 -6 4 C-7.06541016 4.09087891 -7.06541016 4.09087891 -8.15234375 4.18359375 C-9.07144531 4.26738281 -9.99054688 4.35117187 -10.9375 4.4375 C-11.85402344 4.51871094 -12.77054687 4.59992188 -13.71484375 4.68359375 C-15.96159732 4.76044976 -15.96159732 4.76044976 -17 6 C-19.14658471 6.27691151 -21.30108618 6.49278826 -23.45703125 6.68359375 C-24.11523361 6.74402359 -24.77343597 6.80445343 -25.45158386 6.86671448 C-28.26881711 7.12521302 -31.08693416 7.37341724 -33.9050293 7.62231445 C-35.96437986 7.80572954 -38.02318628 7.99459952 -40.08203125 8.18359375 C-41.92631714 8.34686157 -41.92631714 8.34686157 -43.80786133 8.51342773 C-47.09694009 8.8435762 -50.29889978 9.42699747 -53.54663086 10.03881836 C-60.75661468 11.2662559 -67.87871336 11.25274378 -75.171875 11.1953125 C-76.5896179 11.19157142 -78.00736343 11.18872964 -79.42510986 11.18673706 C-83.11413001 11.17918661 -86.80298674 11.15961462 -90.49194336 11.1373291 C-94.27325227 11.11668297 -98.05458819 11.10769567 -101.8359375 11.09765625 C-109.22403196 11.0763584 -116.61199288 11.04232962 -124 11 C-124 10.34 -124 9.68 -124 9 C-126.64 9 -129.28 9 -132 9 C-132 8.67 -132 8.34 -132 8 C-130.64595503 7.97236643 -129.29173445 7.95332578 -127.9375 7.9375 C-127.18339844 7.92589844 -126.42929687 7.91429687 -125.65234375 7.90234375 C-123 8 -123 8 -119.93994141 8.4934082 C-115.36880647 9.08115792 -110.91163337 9.17994142 -106.30859375 9.203125 C-104.91428383 9.21378242 -104.91428383 9.21378242 -103.49180603 9.22465515 C-73.51092456 9.40109664 -45.00018857 7.46844808 -15.62255859 1.24975586 C-14.8776416 1.0945195 -14.13272461 0.93928314 -13.36523438 0.77934265 C-11.96723919 0.48653245 -10.57077538 0.18627482 -9.17626953 -0.12272644 C-5.8223317 -0.82383285 -3.25448632 -1.22466331 0 0 Z " fill="#072048" transform="translate(396,342)"/>
<path d="M0 0 C3.04826197 3.04826197 2.32824325 6.59125814 2.35400391 10.68481445 C2.3671463 11.5841571 2.3802887 12.48349976 2.39382935 13.41009521 C2.43333992 16.39449371 2.45662896 19.3786908 2.4765625 22.36328125 C2.48471355 23.38123465 2.49286461 24.39918804 2.50126266 25.44798851 C2.54300227 30.83535327 2.57159803 36.22261586 2.59033203 41.61010742 C2.61247197 47.17942004 2.68127415 52.74713664 2.76067543 58.31588459 C2.81292798 62.59414165 2.82970815 66.87201608 2.83689499 71.15056419 C2.84664735 73.20357233 2.86993495 75.25656221 2.90697098 77.30925941 C2.95560151 80.18313158 2.95386038 83.05284564 2.93994141 85.92700195 C2.96556152 86.77550217 2.99118164 87.62400238 3.01757812 88.49821472 C2.97483919 90.91865171 2.85895854 92.73389921 2 95 C-0.79842037 97.63500741 -4.05346936 100 -8 100 C-7.67 99.01 -7.34 98.02 -7 97 C-5.66666667 96.66666667 -4.33333333 96.33333333 -3 96 C-2.67 95.01 -2.34 94.02 -2 93 C-1.34 93 -0.68 93 0 93 C0 62.31 0 31.62 0 0 Z " fill="#123264" transform="translate(482,166)"/>
<path d="M0 0 C0.99 0.33 1.98 0.66 3 1 C2.67657623 1.63342819 2.35315247 2.26685638 2.01992798 2.91947937 C0.63949675 7.08883934 0.6919866 10.92318732 0.68115234 15.28833008 C0.67110672 16.21564941 0.6610611 17.14296875 0.65071106 18.09838867 C0.61988548 21.15543005 0.60284554 24.21238386 0.5859375 27.26953125 C0.56722537 29.39231621 0.54765192 31.51509374 0.5272522 33.63786316 C0.4759299 39.21910214 0.43630458 44.80036524 0.39910889 50.38171387 C0.35906995 56.07940639 0.30797707 61.77699859 0.2578125 67.47460938 C0.16105199 78.64966911 0.0766475 89.82478549 0 101 C-1.32 100.34 -2.64 99.68 -4 99 C-3.67 98.01 -3.34 97.02 -3 96 C-2.88993569 93.19255374 -2.83547103 90.40863521 -2.82641602 87.60058594 C-2.8163855 86.31469322 -2.8163855 86.31469322 -2.80615234 85.00282288 C-2.79209943 83.14000623 -2.78020614 81.27717233 -2.77020454 79.41432953 C-2.75378885 76.46326974 -2.73054919 73.51233703 -2.70530701 70.56134033 C-2.63455734 62.17035261 -2.57449551 53.77931229 -2.52319336 45.38818359 C-2.49133606 40.25587601 -2.4500405 35.1237135 -2.40299797 29.99152374 C-2.38701511 28.03799305 -2.37467645 26.08442895 -2.36609077 24.13085175 C-2.35388647 21.39274948 -2.32971415 18.65498577 -2.30297852 15.91699219 C-2.3020948 14.71348869 -2.3020948 14.71348869 -2.30119324 13.485672 C-2.23866095 8.63313447 -1.53659342 4.60899158 0 0 Z " fill="#3867C4" transform="translate(124,160)"/>
<path d="M0 0 C0.85930618 -0.00365067 1.71861237 -0.00730133 2.60395813 -0.01106262 C5.4321394 -0.01913976 8.2597426 -0.00558159 11.08789062 0.0090332 C13.06034342 0.00955215 15.03279674 0.00903311 17.00524902 0.00752258 C21.13427476 0.00761218 25.26310473 0.01801607 29.39208984 0.03613281 C34.6780595 0.05881938 39.96374329 0.05936266 45.24974823 0.05261517 C49.32129445 0.04926968 53.39277579 0.05591623 57.46430969 0.0657444 C59.41310791 0.06958667 61.36191336 0.07074866 63.31071472 0.06915855 C66.03670946 0.06878665 68.76234119 0.08144306 71.48828125 0.09765625 C72.28949905 0.09517883 73.09071686 0.09270142 73.91621399 0.09014893 C78.41033605 0.13269092 82.00900869 0.67527392 86.24414062 2.37231445 C83.59675146 3.83294296 82.34965728 4.37231445 79.24414062 4.37231445 C79.24414062 5.03231445 79.24414062 5.69231445 79.24414062 6.37231445 C78.25414062 5.87731445 78.25414062 5.87731445 77.24414062 5.37231445 C77.24414062 4.38231445 77.24414062 3.39231445 77.24414062 2.37231445 C49.52414062 2.37231445 21.80414063 2.37231445 -6.75585938 2.37231445 C-6.42585938 3.36231445 -6.09585937 4.35231445 -5.75585938 5.37231445 C-8.50664821 6.28924407 -10.1153485 6.48117529 -12.94335938 6.43481445 C-14.83054688 6.40387695 -14.83054688 6.40387695 -16.75585938 6.37231445 C-16.94921875 6.98719727 -17.14257812 7.60208008 -17.34179688 8.2355957 C-17.6021875 9.04383789 -17.86257812 9.85208008 -18.13085938 10.68481445 C-18.38609375 11.48532227 -18.64132813 12.28583008 -18.90429688 13.1105957 C-19.75585938 15.37231445 -19.75585938 15.37231445 -21.75585938 18.37231445 C-22.12224528 20.78944924 -22.12224528 20.78944924 -22.16992188 23.4777832 C-22.20859375 24.46069336 -22.24726563 25.44360352 -22.28710938 26.45629883 C-22.31804687 27.48045898 -22.34898437 28.50461914 -22.38085938 29.55981445 C-22.41953125 30.59557617 -22.45820313 31.63133789 -22.49804688 32.69848633 C-22.59234233 35.25625068 -22.67794139 37.81400733 -22.75585938 40.37231445 C-23.08585938 40.37231445 -23.41585937 40.37231445 -23.75585938 40.37231445 C-23.87305112 36.53924276 -23.94344015 32.70663837 -24.00585938 28.87231445 C-24.039375 27.7946582 -24.07289063 26.71700195 -24.10742188 25.60668945 C-24.20961893 17.22653131 -22.78827224 11.96332969 -17.38085938 5.55981445 C-11.71524948 0.83847287 -7.11431377 -0.06787162 0 0 Z " fill="#051A47" transform="translate(266.755859375,71.627685546875)"/>
<path d="M0 0 C0.66 0.33 1.32 0.66 2 1 C2 13.54 2 26.08 2 39 C6.90230469 38.96519531 11.80460937 38.93039063 16.85546875 38.89453125 C19.98634025 38.87917822 23.11716445 38.86473469 26.24804688 38.85351562 C31.20281781 38.8356759 36.15742032 38.81471666 41.11206055 38.77368164 C45.11267742 38.74076045 49.11311334 38.72307902 53.11385536 38.71536827 C54.62986405 38.70988287 56.14586437 38.69917384 57.66179466 38.68280983 C67.13936302 38.58469771 75.81536114 39.37577319 85 42 C85 42.99 85 43.98 85 45 C84.03570068 44.7183197 83.07140137 44.4366394 82.07788086 44.14642334 C72.12421939 41.37030579 62.88651559 40.39666282 52.5625 40.390625 C51.06077339 40.37558964 49.55906298 40.35885163 48.05737305 40.34051514 C44.16462308 40.29742845 40.27209572 40.2769756 36.37915039 40.26177979 C32.38284446 40.24199305 28.38677183 40.20005004 24.390625 40.16015625 C16.59381366 40.08549278 8.79710215 40.0348188 1 40 C0.91697632 38.70751343 0.91697632 38.70751343 0.83227539 37.38891602 C0.62331875 34.15150138 0.4124873 30.91421547 0.20043945 27.67700195 C0.10953409 26.28349509 0.01934752 24.88994112 -0.07006836 23.49633789 C-0.55306958 15.97608982 -1.08033519 8.48159752 -2 1 C-1.34 0.67 -0.68 0.34 0 0 Z " fill="#041B44" transform="translate(403,72)"/>
<path d="M0 0 C0.91954971 -0.0049649 1.83909943 -0.00992981 2.78651428 -0.01504517 C5.81772623 -0.029606 8.84888583 -0.03645915 11.88012695 -0.04199219 C13.99754334 -0.04774925 16.11495972 -0.05350691 18.2323761 -0.05926514 C22.66989381 -0.06975827 27.10739351 -0.07561177 31.54492188 -0.07910156 C37.20931982 -0.08457843 42.87347646 -0.10859651 48.53779888 -0.13707352 C52.91234516 -0.15577061 57.28683416 -0.16090929 61.66141701 -0.16243744 C63.74844492 -0.16544924 65.83547218 -0.17342755 67.92246056 -0.18662262 C88.84923866 -0.30947477 88.84923866 -0.30947477 97.6809082 3.16113281 C98.33967957 3.41014343 98.99845093 3.65915405 99.67718506 3.91571045 C101.39068624 4.6056188 103.06947633 5.3801002 104.7434082 6.16113281 C105.82750977 6.65613281 106.91161133 7.15113281 108.02856445 7.66113281 C110.6809082 9.16113281 110.6809082 9.16113281 112.6809082 12.16113281 C107.95866304 10.62640313 103.32235489 8.92168156 98.6809082 7.16113281 C98.6809082 6.50113281 98.6809082 5.84113281 98.6809082 5.16113281 C97.86106445 5.11214844 97.0412207 5.06316406 96.1965332 5.01269531 C95.11887695 4.93792969 94.0412207 4.86316406 92.9309082 4.78613281 C91.86356445 4.71652344 90.7962207 4.64691406 89.6965332 4.57519531 C86.6809082 4.16113281 86.6809082 4.16113281 85.026474 3.1504364 C81.47930694 1.65432612 77.92329235 1.89193886 74.13623047 1.91821289 C73.27561005 1.91631454 72.41498962 1.9144162 71.52828979 1.91246033 C68.68453855 1.90875697 65.841043 1.91945178 62.99731445 1.93066406 C61.01960785 1.93185639 59.04190067 1.93230891 57.06419373 1.93205261 C52.91906184 1.9336168 48.77401639 1.94190074 44.62890625 1.95532227 C39.31817831 1.97230082 34.00754546 1.97613683 28.69679356 1.97537708 C24.6124328 1.97564918 20.52809279 1.98113701 16.44373894 1.98837852 C14.48573908 1.99155868 12.52773687 1.99353107 10.56973457 1.99427223 C7.83144261 1.99644334 5.09325085 2.00520462 2.35498047 2.01586914 C1.5470253 2.01541595 0.73907013 2.01496277 -0.09336853 2.01449585 C-3.97904747 2.03659373 -7.52345554 2.38061735 -11.3190918 3.16113281 C-13.6315918 2.22363281 -13.6315918 2.22363281 -15.3190918 1.16113281 C-10.17046864 0.11774022 -5.22720214 0.00680386 0 0 Z " fill="#457AD6" transform="translate(265.319091796875,31.8388671875)"/>
<path d="M0 0 C0.33 0 0.66 0 1 0 C3.24008493 10.22174677 4.05965079 19.90077844 4.0234375 30.3515625 C4.02174561 31.28009033 4.02005371 32.20861816 4.01831055 33.1652832 C4.01391521 35.44353162 4.00776197 37.72176098 4 40 C4.82526184 39.99333817 5.65052368 39.98667633 6.50079346 39.97981262 C14.32601231 39.91938739 22.15115139 39.87386729 29.97655106 39.84456348 C33.99846706 39.82899101 38.02018825 39.80790932 42.04199219 39.77368164 C45.93237946 39.74078433 49.82258085 39.72308391 53.71309662 39.71536827 C55.18806631 39.70987867 56.66302729 39.69916101 58.13791656 39.68280983 C69.74078713 39.55943922 80.3909863 40.63802838 90.75 46.1875 C91.75546875 46.71730469 92.7609375 47.24710938 93.796875 47.79296875 C94.52390625 48.19128906 95.2509375 48.58960938 96 49 C96 49.33 96 49.66 96 50 C91.65171746 50.37270993 89.59949952 49.37040213 86 47 C80.75415647 43.82809461 75.99576289 43.34363068 70 43 C70 42.34 70 41.68 70 41 C47.89 41 25.78 41 3 41 C2.34 32.42 1.68 23.84 1 15 C0.67 12.69 0.34 10.38 0 8 C-0.10751986 5.3206052 -0.0470821 2.68367951 0 0 Z " fill="#4274CB" transform="translate(400,72)"/>
<path d="M0 0 C0.66 0.33 1.32 0.66 2 1 C1.99555878 1.86364166 1.99111755 2.72728333 1.98654175 3.61709595 C1.94641809 11.76795866 1.91599173 19.91878806 1.89637566 28.06972694 C1.88595173 32.2599065 1.87181799 36.45000424 1.84912109 40.64013672 C1.82734303 44.68609798 1.81542091 48.73198069 1.81024551 52.77799606 C1.80655866 54.31931163 1.79935916 55.86062305 1.78853989 57.40190506 C1.77395884 59.56571901 1.77202479 61.729211 1.77294922 63.89306641 C1.768508 65.12328522 1.76406677 66.35350403 1.75949097 67.6210022 C2.00435866 71.06123637 2.76326867 73.79364108 4 77 C3.01 77 2.02 77 1 77 C1 76.01 1 75.02 1 74 C0.34 74 -0.32 74 -1 74 C-1 74.99 -1 75.98 -1 77 C-1.66 77 -2.32 77 -3 77 C-2.84080078 75.98647461 -2.68160156 74.97294922 -2.51757812 73.92871094 C-1.78724254 68.04967038 -1.79816227 62.15579197 -1.73963928 56.23868561 C-1.71837498 54.10295873 -1.69137983 51.96736908 -1.66296387 49.83172607 C-1.59361018 44.53451538 -1.53370068 39.23720654 -1.47393799 33.93988037 C-1.42292917 29.44646757 -1.36811606 24.95313333 -1.30812073 20.45983124 C-1.28164338 18.35933288 -1.2607808 16.25882652 -1.2401123 14.15826416 C-1.22339478 12.88303894 -1.20667725 11.60781372 -1.18945312 10.29394531 C-1.17692505 9.17223938 -1.16439697 8.05053345 -1.15148926 6.89483643 C-1.02222689 4.42473785 -0.71567279 2.3554207 0 0 Z " fill="#3563BE" transform="translate(123,307)"/>
<path d="M0 0 C0 0.66 0 1.32 0 2 C25.73012295 4.14536561 51.06254812 4.90528725 76.8125 2.4453125 C82.88862277 1.88148015 88.89898972 1.78551136 95 2 C95 2.33 95 2.66 95 3 C11.02137693 14.4267656 11.02137693 14.4267656 -13 1 C-11.20843648 0.83222817 -9.4167455 0.66581706 -7.625 0.5 C-6.62726563 0.4071875 -5.62953125 0.314375 -4.6015625 0.21875 C-2 0 -2 0 0 0 Z " fill="#396EC1" transform="translate(261,346)"/>
<path d="M0 0 C1.96451473 -0.38590336 1.96451473 -0.38590336 4.41844177 -0.40113831 C5.3476796 -0.41393326 6.27691742 -0.42672821 7.23431396 -0.43991089 C8.76852997 -0.43787155 8.76852997 -0.43787155 10.33374023 -0.43579102 C11.40876297 -0.44586685 12.48378571 -0.45594269 13.59138489 -0.46632385 C17.16389232 -0.49493723 20.73597867 -0.50068873 24.30859375 -0.50390625 C26.79045283 -0.51354351 29.27231019 -0.52363569 31.75416565 -0.53416443 C36.96888168 -0.55216312 42.18344844 -0.55768215 47.39819336 -0.5559082 C54.06296607 -0.55391574 60.72662814 -0.59643658 67.39121914 -0.64822483 C72.52413777 -0.68168929 77.65682608 -0.68766249 82.78984261 -0.68607903 C85.24531424 -0.68960843 87.70079252 -0.70281774 90.15615654 -0.72607613 C93.60534582 -0.75566935 97.05248239 -0.74676819 100.50170898 -0.72875977 C101.50630157 -0.74561829 102.51089417 -0.76247681 103.54592896 -0.77984619 C111.14994321 -0.67961235 116.78272403 1.61112016 123 6 C123.495 6.99 123.495 6.99 124 8 C123.47792969 7.81824219 122.95585937 7.63648438 122.41796875 7.44921875 C120.86108572 6.91753365 119.29909673 6.40066989 117.73350525 5.89520264 C116.09522429 5.35867781 114.46409679 4.79814453 112.85084534 4.19049072 C102.95704166 0.87980941 92.57504412 1.60638001 82.27734375 1.671875 C80.16467931 1.67493849 78.05201284 1.67681012 75.93934631 1.67755127 C71.52743709 1.68213527 67.11571233 1.69648733 62.70385742 1.71875 C57.06985055 1.74704778 51.43598829 1.75796606 45.80191708 1.7624321 C40.39787434 1.7676057 34.99386724 1.78212994 29.58984375 1.796875 C28.57015944 1.79875572 27.55047512 1.80063644 26.49989128 1.80257416 C23.59094376 1.80950696 20.68210526 1.82317113 17.77319336 1.83886719 C16.50653839 1.84054398 16.50653839 1.84054398 15.21429443 1.84225464 C9.4283661 1.88326523 3.74689317 2.3358803 -2 3 C-1.34 2.01 -0.68 1.02 0 0 Z " fill="#021944" transform="translate(248,31)"/>
<path d="M0 0 C0.0462815 8.96192395 0.0818478 17.92380695 0.10362434 26.8858242 C0.11407446 31.04697253 0.12825592 35.20803926 0.15087891 39.36914062 C0.17256371 43.38266429 0.18455937 47.39610933 0.18975449 51.40968704 C0.19345811 52.94314436 0.20069011 54.47659724 0.21146011 56.01002121 C0.22591729 58.15309801 0.2279804 60.29584736 0.22705078 62.43896484 C0.231492 63.66030121 0.23593323 64.88163757 0.24050903 66.13998413 C0 69 0 69 -2 71 C-2 49.22 -2 27.44 -2 5 C-4.31 5 -6.62 5 -9 5 C-6.45523312 2.20075644 -3.92372883 0 0 0 Z " fill="#133466" transform="translate(484,307)"/>
<path d="M0 0 C0.33 0 0.66 0 1 0 C1 7.92 1 15.84 1 24 C-1.87332031 24.02187378 -1.87332031 24.02187378 -4.8046875 24.04418945 C-11.19894426 24.09624929 -17.59296136 24.16163907 -23.98699951 24.23571491 C-27.85621989 24.28006893 -31.72534337 24.31939713 -35.59472656 24.34643555 C-39.34267488 24.37282377 -43.09024297 24.41346258 -46.83795166 24.46318626 C-48.25371498 24.47961909 -49.66954368 24.49127763 -51.08538818 24.49761391 C-61.37520361 24.54823101 -70.96075547 25.81867333 -81 28 C-81 27.34 -81 26.68 -81 26 C-79.02 25.67 -77.04 25.34 -75 25 C-75 24.34 -75 23.68 -75 23 C-50.58 23 -26.16 23 -1 23 C-1.495 14.09 -1.495 14.09 -2 5 C-1.67 5 -1.34 5 -1 5 C-0.67 3.35 -0.34 1.7 0 0 Z " fill="#0A2451" transform="translate(203,88)"/>
<path d="M0 0 C0.94489792 -0.0049649 1.88979584 -0.00992981 2.86332703 -0.01504517 C6.00044475 -0.02969183 9.13751185 -0.03647397 12.2746582 -0.04199219 C14.45221458 -0.04774285 16.62977093 -0.05350059 18.80732727 -0.05926514 C23.37969194 -0.06978312 27.95203899 -0.07562015 32.52441406 -0.07910156 C38.37764628 -0.08457917 44.23064503 -0.10858829 50.08380413 -0.13707352 C54.58515598 -0.15571969 59.08645192 -0.16090662 63.58783913 -0.16243744 C65.74515874 -0.16546147 67.90247743 -0.17348157 70.05975914 -0.18662262 C73.08298715 -0.20371949 76.10564921 -0.2017935 79.12890625 -0.1953125 C80.0169696 -0.20452728 80.90503296 -0.21374207 81.82000732 -0.22323608 C87.26506658 -0.18675869 91.02804072 0.67620896 95.88793945 3.16113281 C95.88793945 4.48113281 95.88793945 5.80113281 95.88793945 7.16113281 C96.87793945 7.65613281 96.87793945 7.65613281 97.88793945 8.16113281 C94.1682602 8.16113281 93.18270934 6.84546131 90.58325195 4.35253906 C86.21507756 1.28273909 80.36761404 2.01298496 75.24560547 2.01586914 C74.38644531 2.01251053 73.52728516 2.00915192 72.64208984 2.00569153 C69.80866033 1.99621089 66.97529008 1.99423997 64.1418457 1.99316406 C62.16796342 1.98994986 60.19408137 1.98658566 58.22019958 1.983078 C54.08527067 1.97709424 49.95036263 1.97523737 45.81542969 1.97583008 C40.52161255 1.97593175 35.22792939 1.96227139 29.93414402 1.94505787 C25.85832608 1.9339313 21.78254048 1.93191106 17.70670891 1.9324398 C15.75511144 1.931261 13.8035131 1.92684478 11.85193062 1.91910744 C9.12108121 1.90929285 6.39052221 1.91219125 3.65966797 1.91821289 C2.85687912 1.91259338 2.05409027 1.90697388 1.22697449 1.90118408 C-3.27672015 1.92637564 -6.86800203 2.45639367 -11.11206055 4.16113281 C-11.11206055 3.17113281 -11.11206055 2.18113281 -11.11206055 1.16113281 C-7.69004708 -0.54987392 -3.76602884 0.00468711 0 0 Z " fill="#4680DB" transform="translate(263.112060546875,70.8388671875)"/>
<path d="M0 0 C0 0.66 0 1.32 0 2 C-0.62648438 2.06058594 -1.25296875 2.12117188 -1.8984375 2.18359375 C-3.12433594 2.30927734 -3.12433594 2.30927734 -4.375 2.4375 C-5.59316406 2.55931641 -5.59316406 2.55931641 -6.8359375 2.68359375 C-9.04272805 2.89090114 -9.04272805 2.89090114 -11 4 C-13.6723621 4.13415472 -16.32250488 4.04318541 -19 4 C-19 4.66 -19 5.32 -19 6 C-26.58120618 6.04672497 -34.16239708 6.08207025 -41.74371529 6.10362434 C-45.26555663 6.11397895 -48.78729813 6.12798205 -52.30908203 6.15087891 C-56.37533422 6.17714452 -60.44148463 6.1865414 -64.5078125 6.1953125 C-66.36806564 6.21079636 -66.36806564 6.21079636 -68.26589966 6.22659302 C-76.70529722 6.22765525 -84.68156918 5.40312678 -93 4 C-93 3.67 -93 3.34 -93 3 C-91.9275 3.0721875 -90.855 3.144375 -89.75 3.21875 C-62.38110528 4.90349609 -33.38564552 5.84944247 -6.38598633 0.39794922 C-4 0 -4 0 0 0 Z " fill="#4375D0" transform="translate(361,307)"/>
<path d="M0 0 C-1.16864611 3.50593832 -1.92513499 4.08859743 -5 6 C-5.969375 6.309375 -6.93875 6.61875 -7.9375 6.9375 C-12.84772366 8.64104698 -17.63371574 12.26743149 -20 17 C-22.5625 17.625 -22.5625 17.625 -25 18 C-25.33 19.65 -25.66 21.3 -26 23 C-26.66 23 -27.32 23 -28 23 C-28.99 25.475 -28.99 25.475 -30 28 C-30.66 28 -31.32 28 -32 28 C-32.12117188 28.56847656 -32.24234375 29.13695312 -32.3671875 29.72265625 C-33.41322054 34.54245464 -34.59204484 39.2732934 -36 44 C-36.66 44 -37.32 44 -38 44 C-37.35083537 37.99522721 -35.14204997 32.599219 -33 27 C-32.34 27 -31.68 27 -31 27 C-30.7525 26.113125 -30.505 25.22625 -30.25 24.3125 C-28.95035375 20.86843744 -27.51270773 18.66975197 -25 16 C-24.34 16 -23.68 16 -23 16 C-22.67 15.01 -22.34 14.02 -22 13 C-16.79755045 7.25504903 -8.00316343 0 0 0 Z " fill="#4474D1" transform="translate(123,116)"/>
<path d="M0 0 C0.99 0 1.98 0 3 0 C5.4328783 4.73708209 5.26993658 9.09743708 5.22705078 14.28833008 C5.22734283 15.21564941 5.22763489 16.14296875 5.22793579 17.09838867 C5.22654535 20.15553224 5.21099749 23.21243039 5.1953125 26.26953125 C5.19158136 28.3923072 5.18873486 30.51508487 5.18673706 32.63786316 C5.1791086 38.21919528 5.15946679 43.80042295 5.1373291 49.38171387 C5.11685376 55.07933133 5.10773173 60.77696571 5.09765625 66.47460938 C5.07622023 77.64978542 5.04209371 88.82488402 5 100 C4.67 100 4.34 100 4 100 C3.99413376 98.86518188 3.98826752 97.73036377 3.98222351 96.56115723 C3.92493258 85.85015761 3.85213752 75.13935978 3.76428509 64.42856598 C3.71961758 58.92244438 3.68035333 53.41639616 3.65356445 47.91015625 C3.62749558 42.59320555 3.58706747 37.27653776 3.53681374 31.95976257 C3.52016931 29.93449938 3.50863997 27.90918729 3.50238609 25.88386536 C3.49271872 23.04011599 3.46462768 20.19708646 3.43237305 17.35351562 C3.43380814 16.52200989 3.43524323 15.69050415 3.4367218 14.83380127 C3.34793071 9.27398099 2.20443752 5.11145057 0 0 Z " fill="#487DDD" transform="translate(480,160)"/>
<path d="M0 0 C3.69368191 1.46888972 7.37046076 2.97509296 11.04296875 4.49609375 C12.19990234 4.97240234 13.35683594 5.44871094 14.54882812 5.93945312 C16.9565363 6.93071033 19.36281366 7.92545074 21.76757812 8.92382812 C28.43779115 11.6621261 35.0601197 14.05343816 42 16 C44.00342734 16.65629516 46.00531118 17.31760646 48 18 C45.35261084 19.4606285 44.10551666 20 41 20 C40.34 20.20625 39.68 20.4125 39 20.625 C37 21 37 21 34 19 C35.65 18.67 37.3 18.34 39 18 C34.34201396 16.79534844 29.76350585 15.71452588 25 15 C25 14.34 25 13.68 25 13 C21.99049877 11.38274466 19.02896392 10.32417377 15.75 9.375 C14.85796875 9.11460937 13.9659375 8.85421875 13.046875 8.5859375 C12.37140625 8.39257812 11.6959375 8.19921875 11 8 C11 7.34 11 6.68 11 6 C10.29875 6.0825 9.5975 6.165 8.875 6.25 C5.02861582 5.91553181 2.99106784 4.36503039 0 2 C0 1.34 0 0.68 0 0 Z " fill="#071C4A" transform="translate(139,315)"/>
<path d="M0 0 C2 3.75 2 3.75 2 6 C4.97065509 5.65772428 4.97065509 5.65772428 8 5 C8.33 4.34 8.66 3.68 9 3 C10.65 3 12.3 3 14 3 C14 3.66 14 4.32 14 5 C18.455 4.505 18.455 4.505 23 4 C23 3.01 23 2.02 23 1 C24.32 1.33 25.64 1.66 27 2 C25.92456217 2.98783194 24.83926783 3.96493943 23.75 4.9375 C23.14671875 5.48277344 22.5434375 6.02804687 21.921875 6.58984375 C17.36448015 9.93378591 11.41771492 9.47853633 6 9 C2.43830904 7.72796751 0.63843195 7.01568719 -1.375 3.8125 C-1.58125 3.214375 -1.7875 2.61625 -2 2 C-1.34 1.34 -0.68 0.68 0 0 Z " fill="#417CDF" transform="translate(292,263)"/>
<path d="M0 0 C0 4.52711238 -2.54941828 6.42097295 -5.52734375 9.65625 C-9.59428158 13.51116738 -14.13037803 16.2689253 -19 19 C-19.84949219 19.48597656 -20.69898438 19.97195313 -21.57421875 20.47265625 C-29.81416245 24.90954901 -37.70540705 26.34424418 -47 26 C-47 25.67 -47 25.34 -47 25 C-45.9378125 24.82984375 -44.875625 24.6596875 -43.78125 24.484375 C-36.18638617 23.2036056 -29.73980556 21.90908723 -23 18 C-22.34 18 -21.68 18 -21 18 C-21 17.34 -21 16.68 -21 16 C-19.700625 15.6596875 -19.700625 15.6596875 -18.375 15.3125 C-15.43184642 14.16794028 -14.04238317 13.36813118 -11.75 11.375 C-9 9 -9 9 -7 9 C-7 8.01 -7 7.02 -7 6 C-6.34 6 -5.68 6 -5 6 C-4.731875 5.38125 -4.46375 4.7625 -4.1875 4.125 C-3 2 -3 2 0 0 Z " fill="#4575CD" transform="translate(511,406)"/>
<path d="M0 0 C0 0.33 0 0.66 0 1 C-15.17390045 3.47705356 -29.61855028 5.17175316 -45 5 C-45 4.34 -45 3.68 -45 3 C-40.03825297 2.56784413 -35.07610139 2.14079208 -30.11352539 1.71826172 C-28.42883743 1.57412247 -26.74426371 1.42864079 -25.05981445 1.28173828 C-22.62480737 1.06962211 -20.18941674 0.86249614 -17.75390625 0.65625 C-17.01290176 0.59062866 -16.27189728 0.52500732 -15.50843811 0.45739746 C-10.32304806 0.02487368 -5.2035843 -0.05399309 0 0 Z " fill="#081F46" transform="translate(365,306)"/>
<path d="M0 0 C-7.81703279 5.2113552 -18.43750022 7.08131727 -27.375 9.75 C-28.42131592 10.06799561 -29.46763184 10.38599121 -30.5456543 10.71362305 C-31.54894775 11.00922119 -32.55224121 11.30481934 -33.5859375 11.609375 C-34.93244385 12.0110791 -34.93244385 12.0110791 -36.30615234 12.42089844 C-39.27109281 13.05827734 -41.97613038 13.09874313 -45 13 C-44.67 12.34 -44.34 11.68 -44 11 C-41.63671875 10.4375 -41.63671875 10.4375 -38.6875 10 C-35.01522013 9.45087404 -32.27792895 8.70586099 -29 7 C-27.57269229 6.64383264 -26.13364002 6.3322064 -24.6875 6.0625 C-20.51588581 5.19540507 -16.90009576 3.73337589 -13 2 C-8.49293286 0.49764429 -4.75155011 -0.23178293 0 0 Z " fill="#071E49" transform="translate(423,290)"/>
<path d="M0 0 C0.33 0 0.66 0 1 0 C0.77486568 7.2830954 0.31565036 13.44243874 -3.01171875 19.98828125 C-4.44420113 22.90420388 -5.19804129 25.85899507 -6 29 C-7.32 29 -8.64 29 -10 29 C-10 30.32 -10 31.64 -10 33 C-12.475 33.495 -12.475 33.495 -15 34 C-14.54109375 33.29875 -14.0821875 32.5975 -13.609375 31.875 C-6.83635754 21.40243518 -2.95690868 12.07928653 0 0 Z " fill="#0B2450" transform="translate(523,378)"/>
<path d="M0 0 C0 0.33 0 0.66 0 1 C-3.92690812 1.84442592 -7.85556045 2.68017978 -11.78588867 3.50854492 C-13.11775259 3.7904489 -14.44915102 4.07456285 -15.7800293 4.36108398 C-23.84476057 6.09553278 -31.75834374 7.51102444 -40 8 C-40.33 7.34 -40.66 6.68 -41 6 C-38.45432482 4.72716241 -36.14728116 4.48506785 -33.328125 4.0625 C-32.18859375 3.88976562 -31.0490625 3.71703125 -29.875 3.5390625 C-28.67875 3.36117188 -27.4825 3.18328125 -26.25 3 C-23.90099977 2.64611132 -21.55204008 2.2919534 -19.203125 1.9375 C-18.15801758 1.78152344 -17.11291016 1.62554687 -16.03613281 1.46484375 C-13.97180356 1.14878691 -11.91114327 0.80798801 -9.85449219 0.4453125 C-6.5387084 -0.07196338 -3.35045757 -0.06700915 0 0 Z " fill="#4976D5" transform="translate(397,340)"/>
<path d="M0 0 C4.85879578 0.74338043 9.59913518 1.79452167 14.375 2.9375 C15.09171875 3.10701172 15.8084375 3.27652344 16.546875 3.45117188 C21.3741159 4.59698808 26.18871062 5.78903213 31 7 C31 7.33 31 7.66 31 8 C24.2718373 8.22262303 18.46008837 7.95021536 12 6 C12 5.34 12 4.68 12 4 C11.38511719 4.02320313 10.77023438 4.04640625 10.13671875 4.0703125 C8.92435547 4.09738281 8.92435547 4.09738281 7.6875 4.125 C6.88699219 4.14820313 6.08648437 4.17140625 5.26171875 4.1953125 C3 4 3 4 0 2 C0 1.34 0 0.68 0 0 Z " fill="#081F49" transform="translate(196,337)"/>
<path d="M0 0 C0.99 0.66 1.98 1.32 3 2 C2.67 2.66 2.34 3.32 2 4 C1.01 4 0.02 4 -1 4 C-1.33 4.66 -1.66 5.32 -2 6 C-2.66 6 -3.32 6 -4 6 C-4 6.99 -4 7.98 -4 9 C-4.99 9.495 -4.99 9.495 -6 10 C-6.84960373 12.52212208 -7.47138647 15.07207768 -8.12109375 17.65234375 C-9 20 -9 20 -12 22 C-12.72382467 24.05925139 -12.72382467 24.05925139 -13 26 C-13.66 26 -14.32 26 -15 26 C-12.61170608 14.85462837 -7.8966843 8.23414945 0 0 Z " fill="#4377D3" transform="translate(221,50)"/>
<path d="M0 0 C2.16740269 0.28614586 4.33389266 0.57920803 6.5 0.875 C7.7065625 1.03742188 8.913125 1.19984375 10.15625 1.3671875 C12.82986707 1.80735616 15.27774743 2.30528034 17.875 3 C22.37494244 4.17090339 26.88072791 4.66608209 31.5 5.125 C32.32242188 5.21136719 33.14484375 5.29773438 33.9921875 5.38671875 C35.99426526 5.59623852 37.99706397 5.79885044 40 6 C40 6.33 40 6.66 40 7 C37.39576408 7.02697137 34.79180756 7.04682489 32.1875 7.0625 C31.44951172 7.07087891 30.71152344 7.07925781 29.95117188 7.08789062 C26.70077932 7.10259828 24.10595105 7.03531702 21 6 C17.90775724 5.69459331 14.81488281 5.49167689 11.71484375 5.28125 C9 5 9 5 7 4 C7 3.34 7 2.68 7 2 C4.69 2 2.38 2 0 2 C0 1.34 0 0.68 0 0 Z " fill="#4477CF" transform="translate(224,303)"/>
<path d="M0 0 C4.22026255 0.7971607 8.09124227 1.5359535 11.9375 3.5 C16.13606827 5.5564416 20.41452678 6.229713 25 7 C25 7.66 25 8.32 25 9 C26.98 9 28.96 9 31 9 C31 9.33 31 9.66 31 10 C25.13415362 10.23594466 20.49108644 9.59221781 14.9375 7.75 C14.26912109 7.54503906 13.60074219 7.34007812 12.91210938 7.12890625 C8.2121149 5.62161939 4.21525187 3.56532883 0 1 C0 0.67 0 0.34 0 0 Z " fill="#4172CF" transform="translate(111,422)"/>
<path d="M0 0 C0 0.66 0 1.32 0 2 C9.57 2.66 19.14 3.32 29 4 C29 4.33 29 4.66 29 5 C19.50789403 5.22392911 10.14705699 4.99387783 0.6875 4.125 C-0.21315186 4.04652832 -1.11380371 3.96805664 -2.04174805 3.88720703 C-2.890354 3.80325684 -3.73895996 3.71930664 -4.61328125 3.6328125 C-5.73923706 3.52283936 -5.73923706 3.52283936 -6.88793945 3.41064453 C-9.19698522 2.96170048 -10.95237245 2.13953413 -13 1 C-11.20843648 0.83222817 -9.4167455 0.66581706 -7.625 0.5 C-6.62726563 0.4071875 -5.62953125 0.314375 -4.6015625 0.21875 C-2 0 -2 0 0 0 Z " fill="#4278D5" transform="translate(261,346)"/>
<path d="M0 0 C3.69497913 0.92374478 4.95223064 1.93802894 7.3125 5 C9.94260718 10.13191645 9.89488167 15.65628672 8.421875 21.16015625 C7.6875 23.0625 7.6875 23.0625 6 26 C5.01 26.33 4.02 26.66 3 27 C3.32355469 26.14535156 3.64710938 25.29070312 3.98046875 24.41015625 C5.02618774 20.91240652 5.29960851 18.07719865 5.3125 14.4375 C5.32925781 13.34308594 5.34601563 12.24867188 5.36328125 11.12109375 C4.95769254 7.63651977 3.99907337 5.84539641 2 3 C1.34 2.01 0.68 1.02 0 0 Z " fill="#0D2852" transform="translate(317,237)"/>
<path d="M0 0 C0.66 0 1.32 0 2 0 C1.84273438 0.70511719 1.68546875 1.41023437 1.5234375 2.13671875 C0.28671021 8.9018016 -0.36402693 15.63239126 3.4375 21.625 C4.27810172 22.76017155 5.12983412 23.88732887 6 25 C6.33 25.66 6.66 26.32 7 27 C4.61435923 26.42415568 2.33317216 25.77772405 0 25 C-4.11764706 7.72058824 -4.11764706 7.72058824 0 0 Z " fill="#0A2454" transform="translate(284,241)"/>
<path d="M0 0 C0.69480469 -0.01611328 1.38960938 -0.03222656 2.10546875 -0.04882812 C6.86195623 -0.05330693 10.05172956 0.8927986 14.125 3.3125 C13.795 4.3025 13.465 5.2925 13.125 6.3125 C12.5475 5.838125 11.97 5.36375 11.375 4.875 C6.55868912 1.53033967 0.79249363 1.81771881 -4.875 2.3125 C-9.67997105 4.0681625 -13.08224329 6.97126195 -16.875 10.3125 C-16.215 8.6625 -15.555 7.0125 -14.875 5.3125 C-14.215 5.3125 -13.555 5.3125 -12.875 5.3125 C-12.545 4.3225 -12.215 3.3325 -11.875 2.3125 C-8.3241999 -0.32851798 -4.24013772 -0.01945017 0 0 Z " fill="#06214F" transform="translate(302.875,230.6875)"/>
<path d="M0 0 C-0.99 0.33 -1.98 0.66 -3 1 C-4.10168984 2.69769234 -4.10168984 2.69769234 -5 5 C-5.50144531 5.94746094 -6.00289062 6.89492187 -6.51953125 7.87109375 C-8.78934901 13.16411559 -8.56964282 18.76351866 -8.6875 24.4375 C-8.72166016 25.55060547 -8.75582031 26.66371094 -8.79101562 27.81054688 C-8.87302429 30.54026383 -8.94232837 33.2696786 -9 36 C-9.33 36 -9.66 36 -10 36 C-10.08802152 32.0209757 -10.14073233 28.04220612 -10.1875 24.0625 C-10.21263672 22.94552734 -10.23777344 21.82855469 -10.26367188 20.67773438 C-10.32856295 13.30178226 -10.32366886 5.53139816 -5 -0.125 C-3 -1 -3 -1 0 0 Z " fill="#497DDE" transform="translate(252,76)"/>
<path d="M0 0 C8.01062788 -0.3127794 17.13767246 -0.57488503 24 4 C26.27538323 4.66613335 26.27538323 4.66613335 28.6875 5.125 C29.49574219 5.29257812 30.30398437 5.46015625 31.13671875 5.6328125 C31.75160156 5.75398438 32.36648437 5.87515625 33 6 C33 6.33 33 6.66 33 7 C27.31465471 6.60286191 21.8389705 6.13546982 16.32421875 4.609375 C10.93516542 3.19644673 5.45054477 2.14828893 0 1 C0 0.67 0 0.34 0 0 Z " fill="#0F2A5D" transform="translate(218,301)"/>
<path d="M0 0 C0.33 0.66 0.66 1.32 1 2 C0.34 2 -0.32 2 -1 2 C-1.19335938 2.61488281 -1.38671875 3.22976562 -1.5859375 3.86328125 C-1.84632813 4.67152344 -2.10671875 5.47976562 -2.375 6.3125 C-2.63023437 7.11300781 -2.88546875 7.91351563 -3.1484375 8.73828125 C-4 11 -4 11 -6 14 C-6.3663859 16.41713479 -6.3663859 16.41713479 -6.4140625 19.10546875 C-6.45273438 20.08837891 -6.49140625 21.07128906 -6.53125 22.08398438 C-6.5621875 23.10814453 -6.593125 24.13230469 -6.625 25.1875 C-6.66367188 26.22326172 -6.70234375 27.25902344 -6.7421875 28.32617188 C-6.83648296 30.88393622 -6.92208202 33.44169287 -7 36 C-7.33 36 -7.66 36 -8 36 C-8.11719175 32.16692831 -8.18758077 28.33432392 -8.25 24.5 C-8.28351563 23.42234375 -8.31703125 22.3446875 -8.3515625 21.234375 C-8.45106155 13.07545254 -7.35792076 7.73102307 -1.75 1.5 C-1.1725 1.005 -0.595 0.51 0 0 Z " fill="#163774" transform="translate(251,76)"/>
<path d="M0 0 C0.33 0 0.66 0 1 0 C1.26554687 1.07378906 1.53109375 2.14757812 1.8046875 3.25390625 C2.16139421 4.6901201 2.51816866 6.12631712 2.875 7.5625 C3.04902344 8.26697266 3.22304687 8.97144531 3.40234375 9.69726562 C4.51294815 14.16024998 5.71201216 18.58487052 7 23 C6.34 23.33 5.68 23.66 5 24 C4.896875 23.38125 4.79375 22.7625 4.6875 22.125 C4.12474627 19.63473516 4.12474627 19.63473516 1 18 C-0.38494833 12.08249349 -0.09842713 6.04780042 0 0 Z " fill="#09234F" transform="translate(83,377)"/>
<path d="M0 0 C0.33 1.32 0.66 2.64 1 4 C-0.09601169 5.00893131 -1.20213918 6.00688225 -2.3125 7 C-2.92738281 7.556875 -3.54226563 8.11375 -4.17578125 8.6875 C-6 10 -6 10 -9 10 C-9.33 10.99 -9.66 11.98 -10 13 C-16.02694363 16.18404569 -16.02694363 16.18404569 -19.23046875 15.578125 C-19.81441406 15.38734375 -20.39835937 15.1965625 -21 15 C-20.13117188 14.55269531 -19.26234375 14.10539062 -18.3671875 13.64453125 C-7.92645927 8.37205081 -7.92645927 8.37205081 0 0 Z " fill="#0B2557" transform="translate(507,412)"/>
<path d="M0 0 C0.763125 0.20625 1.52625 0.4125 2.3125 0.625 C1.37808465 1.89810312 0.43982889 3.168388 -0.5 4.4375 C-1.02207031 5.14519531 -1.54414063 5.85289063 -2.08203125 6.58203125 C-3.51878877 8.41031393 -5.00565763 10.02396688 -6.6875 11.625 C-8.0497291 6.51664087 -8.0497291 6.51664087 -6.875 3.625 C-5.0371358 0.52964976 -3.59824628 -0.50208088 0 0 Z " fill="#0C1D3D" transform="translate(217.6875,50.375)"/>
<path d="M0 0 C1.65 0 3.3 0 5 0 C2.74764161 2.50437051 0.59789102 3.85064107 -2.44921875 5.26171875 C-3.72055664 5.85629883 -3.72055664 5.85629883 -5.01757812 6.46289062 C-6.33918945 7.06907227 -6.33918945 7.06907227 -7.6875 7.6875 C-8.58017578 8.10322266 -9.47285156 8.51894531 -10.39257812 8.94726562 C-12.59240981 9.97071673 -14.79486819 10.98803204 -17 12 C-16.67 11.01 -16.34 10.02 -16 9 C-15.34 9 -14.68 9 -14 9 C-14 8.34 -14 7.68 -14 7 C-13.0925 6.71125 -12.185 6.4225 -11.25 6.125 C-8.1223223 5.12804594 -8.1223223 5.12804594 -5.8125 3.875 C-4 3 -4 3 -1 3 C-0.67 2.01 -0.34 1.02 0 0 Z " fill="#061E4B" transform="translate(465,268)"/>
<path d="M0 0 C1.32 0 2.64 0 4 0 C4 0.66 4 1.32 4 2 C4.88171875 2.16242188 4.88171875 2.16242188 5.78125 2.328125 C11.16765683 3.95922002 16.02328382 9.41089588 19 14 C18.67 14.99 18.34 15.98 18 17 C17.45472656 16.34773438 16.90945313 15.69546875 16.34765625 15.0234375 C11.84596211 9.80608942 7.56393767 5.62576068 1.65234375 2.05859375 C1.10707031 1.70925781 0.56179688 1.35992187 0 1 C0 0.67 0 0.34 0 0 Z " fill="#041E4B" transform="translate(494,120)"/>
<path d="M0 0 C7.60268553 -0.86068138 12.73756521 1.7516699 19 6 C19.33 6.66 19.66 7.32 20 8 C19.47792969 7.81824219 18.95585937 7.63648438 18.41796875 7.44921875 C12.34250187 5.37440957 6.20694217 3.63584831 0 2 C0 1.34 0 0.68 0 0 Z " fill="#092048" transform="translate(352,31)"/>
<path d="M0 0 C2.1462026 0.14029419 4.29196218 0.28738164 6.4375 0.4375 C7.63246094 0.51871094 8.82742187 0.59992188 10.05859375 0.68359375 C13 1 13 1 14 2 C16.57391641 2.53176398 19.15859517 2.96430799 21.75 3.40234375 C22.86375 3.69818359 22.86375 3.69818359 24 4 C24.33 4.66 24.66 5.32 25 6 C16.40131562 5.38580826 8.30515248 3.19092979 0 1 C0 0.67 0 0.34 0 0 Z " fill="#4072C8" transform="translate(211,340)"/>
<path d="M0 0 C1.81332154 0.30769707 3.62564345 0.62129064 5.4375 0.9375 C6.95150391 1.19853516 6.95150391 1.19853516 8.49609375 1.46484375 C11 2 11 2 12 3 C13.19625 3.12375 14.3925 3.2475 15.625 3.375 C19.88548769 3.84411507 23.14726063 5.15389572 27 7 C26.67 7.66 26.34 8.32 26 9 C8.14350797 3.81321185 8.14350797 3.81321185 0 1 C0 0.67 0 0.34 0 0 Z " fill="#4677D0" transform="translate(181,331)"/>
<path d="M0 0 C0.99 0 1.98 0 3 0 C5.13120646 6.91383514 5.23698014 13.29881576 5.125 20.5 C5.11597656 21.60859375 5.10695313 22.7171875 5.09765625 23.859375 C5.07426167 26.57314592 5.04148175 29.28645545 5 32 C4.67 32 4.34 32 4 32 C3.97812622 31.13217896 3.97812622 31.13217896 3.95581055 30.24682617 C3.65939997 14.86131184 3.65939997 14.86131184 0 0 Z " fill="#487FE2" transform="translate(360,80)"/>
<path d="M0 0 C3.3 0 6.6 0 10 0 C10.33 1.32 10.66 2.64 11 4 C13.97 4.33 16.94 4.66 20 5 C20 5.99 20 6.98 20 8 C13.14381674 6.07443364 6.56747868 3.7527517 0 1 C0 0.67 0 0.34 0 0 Z " fill="#4573D5" transform="translate(156,322)"/>
<path d="M0 0 C5.44792005 0.56749167 9.98240699 1.75073417 15 4 C15.33 4.99 15.66 5.98 16 7 C16.66 7.33 17.32 7.66 18 8 C13.3110507 7.44380331 9.80075733 6.11817327 5.625 3.9375 C4.56539062 3.38964844 3.50578125 2.84179688 2.4140625 2.27734375 C1.61742187 1.85582031 0.82078125 1.43429687 0 1 C0 0.67 0 0.34 0 0 Z " fill="#4374CF" transform="translate(134,312)"/>
<path d="M0 0 C5.53385349 3.85692819 10.84324207 9.52972622 13 16 C12.01 16 11.02 16 10 16 C9.608125 15.071875 9.21625 14.14375 8.8125 13.1875 C7.29093661 9.87331008 7.29093661 9.87331008 4.4375 8.5625 C2 7 2 7 0.6875 3.3125 C0.460625 2.219375 0.23375 1.12625 0 0 Z " fill="#4376D3" transform="translate(382,46)"/>
<path d="M0 0 C2.91843445 2.626591 4.94517315 5.66976339 7 9 C7 9.66 7 10.32 7 11 C7.99 11.33 8.98 11.66 10 12 C11.38576923 13.62332967 12.72641268 15.28724465 14 17 C10.66272214 15.82744291 8.22562513 14.81131596 6 12 C6 11.34 6 10.68 6 10 C5.01 9.67 4.02 9.34 3 9 C3 8.34 3 7.68 3 7 C2.01 6.67 1.02 6.34 0 6 C0 4.02 0 2.04 0 0 Z " fill="#0B2659" transform="translate(90,400)"/>
<path d="M0 0 C-0.33 0.99 -0.66 1.98 -1 3 C-3.64 3 -6.28 3 -9 3 C-9.33 3.99 -9.66 4.98 -10 6 C-16.435 6.495 -16.435 6.495 -23 7 C-20.36308724 5.24205816 -18.80005659 4.52272008 -15.83984375 3.7109375 C-14.6497168 3.38222656 -14.6497168 3.38222656 -13.43554688 3.046875 C-12.61119141 2.82515625 -11.78683594 2.6034375 -10.9375 2.375 C-10.10927734 2.14554687 -9.28105469 1.91609375 -8.42773438 1.6796875 C-2.28387742 0 -2.28387742 0 0 0 Z " fill="#0B2353" transform="translate(420,334)"/>
<path d="M0 0 C-3.82338795 2.5489253 -7.60346015 3.47430386 -12 4.6875 C-13.22976563 5.04424805 -13.22976563 5.04424805 -14.484375 5.40820312 C-15.27328125 5.62798828 -16.0621875 5.84777344 -16.875 6.07421875 C-17.59429687 6.27619873 -18.31359375 6.47817871 -19.0546875 6.6862793 C-21 7 -21 7 -24 6 C-24 5.67 -24 5.34 -24 5 C-16.18824693 2.16965469 -8.37492467 -0.19303904 0 0 Z " fill="#4578D9" transform="translate(421,333)"/>
<path d="M0 0 C8.28397934 0.16567959 14.87497274 4.16729573 22 8 C22 8.33 22 8.66 22 9 C17.65171746 9.37270993 15.59949952 8.37040213 12 6 C7.96189204 3.76615304 4.59004738 2.54643421 0 2 C0 1.34 0 0.68 0 0 Z " fill="#4573CA" transform="translate(474,113)"/>
<path d="M0 0 C6.27 0.33 12.54 0.66 19 1 C19 1.33 19 1.66 19 2 C21.31 2.33 23.62 2.66 26 3 C26 3.33 26 3.66 26 4 C17.05571013 4.58051881 8.70163476 2.81374025 0 1 C0 0.67 0 0.34 0 0 Z " fill="#051B3E" transform="translate(248,306)"/>
<path d="M0 0 C6.46183915 -0.35104559 11.32910011 -0.28912194 17 3 C19.4375 5.6875 19.4375 5.6875 21 8 C19.0625 7.6875 19.0625 7.6875 17 7 C16.67 6.01 16.34 5.02 16 4 C13.69 3.67 11.38 3.34 9 3 C9 2.34 9 1.68 9 1 C6.03 1 3.06 1 0 1 C0 0.67 0 0.34 0 0 Z " fill="#4476D2" transform="translate(298,232)"/>
<path d="M0 0 C0.33 0 0.66 0 1 0 C0.74809356 8.14917336 -0.00549938 14.80989889 -4 22 C-4.66 22 -5.32 22 -6 22 C-5.81824219 21.41734375 -5.63648438 20.8346875 -5.44921875 20.234375 C-3.39764489 13.54308794 -1.64771106 6.80119035 0 0 Z " fill="#0B2A5B" transform="translate(523,378)"/>
<path d="M0 0 C0 0.66 0 1.32 0 2 C-2.97851562 2.29296875 -2.97851562 2.29296875 -5.95703125 2.5859375 C-8.29988142 2.92665391 -8.29988142 2.92665391 -11 5 C-13.73990408 4.96856707 -16.28417854 4.44521663 -19 4 C-19 3.67 -19 3.34 -19 3 C-16.96040523 2.49161436 -14.91820862 1.99366114 -12.875 1.5 C-11.73804688 1.2215625 -10.60109375 0.943125 -9.4296875 0.65625 C-6.18533302 0.03546235 -3.29185543 -0.12006768 0 0 Z " fill="#4476D1" transform="translate(384,303)"/>
<path d="M0 0 C1.485 0.99 1.485 0.99 3 2 C3.94631647 8.71699143 3.90340946 15.30752787 0 21 C-0.33 21 -0.66 21 -1 21 C-1.25065274 15.48563969 -1.25065274 15.48563969 0 13.0625 C1.97504071 8.98897854 1.35258925 4.22684141 0 0 Z " fill="#487EDA" transform="translate(320,243)"/>
<path d="M0 0 C0.99 0 1.98 0 3 0 C2.25 2.9375 2.25 2.9375 1 6 C-1.0625 6.6875 -1.0625 6.6875 -3 7 C-3.33 7.99 -3.66 8.98 -4 10 C-6.0625 10.6875 -6.0625 10.6875 -8 11 C-7 8 -7 8 -4.5625 6.0625 C-2.10694869 4.08608065 -1.12960279 2.87535256 0 0 Z " fill="#4074CF" transform="translate(481,380)"/>
<path d="M0 0 C0.99 0 1.98 0 3 0 C3.53251766 1.91345327 4.05059483 3.8309295 4.5625 5.75 C4.85253906 6.81734375 5.14257812 7.8846875 5.44140625 8.984375 C5.97098494 11.84335927 5.98370862 13.31597383 5 16 C0.59225513 5.62642369 0.59225513 5.62642369 0 0 Z " fill="#487ADA" transform="translate(85,384)"/>
<path d="M0 0 C0 0.66 0 1.32 0 2 C-4.95 2.66 -9.9 3.32 -15 4 C-15.33 3.34 -15.66 2.68 -16 2 C-11.36703792 -0.31648104 -5.09716729 -0.16442475 0 0 Z " fill="#4A79E7" transform="translate(372,344)"/>
<path d="M0 0 C0 0.66 0 1.32 0 2 C-0.99 2 -1.98 2 -3 2 C-2.67 3.32 -2.34 4.64 -2 6 C-5.24221555 7.08073852 -7.60402937 7.21676408 -11 7 C-11.66 6.34 -12.32 5.68 -13 5 C-11.21046815 4.16209211 -9.41830305 3.32980604 -7.625 2.5 C-6.62726563 2.0359375 -5.62953125 1.571875 -4.6015625 1.09375 C-2 0 -2 0 0 0 Z " fill="#081E40" transform="translate(475,312)"/>
<path d="M0 0 C0 0.66 0 1.32 0 2 C-5.93891422 4.5915262 -10.54107286 5.40368295 -17 5 C-13.86768478 2.91178985 -11.56941553 2.24877798 -7.9375 1.375 C-6.87402344 1.11460937 -5.81054688 0.85421875 -4.71484375 0.5859375 C-2 0 -2 0 0 0 Z " fill="#4075D0" transform="translate(408,296)"/>
<path d="M0 0 C5.28 0.66 10.56 1.32 16 2 C16.33 2.99 16.66 3.98 17 5 C11.0870696 4.35729017 5.65755469 2.80996216 0 1 C0 0.67 0 0.34 0 0 Z " fill="#0F295E" transform="translate(201,296)"/>
<path d="M0 0 C-1.93232821 0.86580287 -3.87107194 1.71729941 -5.8125 2.5625 C-6.89144531 3.03816406 -7.97039062 3.51382812 -9.08203125 4.00390625 C-12 5 -12 5 -15 4 C-14.34 4 -13.68 4 -13 4 C-13 3.01 -13 2.02 -13 1 C-11.58622218 0.63447197 -10.16879424 0.28304505 -8.75 -0.0625 C-7.96109375 -0.25972656 -7.1721875 -0.45695312 -6.359375 -0.66015625 C-3.89605178 -1.01497267 -2.34395868 -0.76877544 0 0 Z " fill="#4479D8" transform="translate(448,324)"/>
<path d="M0 0 C4.92947689 -0.10150789 9.56533119 0.25757428 14.4375 1 C16.29181641 1.2784375 16.29181641 1.2784375 18.18359375 1.5625 C19.11300781 1.706875 20.04242188 1.85125 21 2 C21 2.33 21 2.66 21 3 C18.43721301 3.05420701 15.87558517 3.09377007 13.3125 3.125 C12.59126953 3.14175781 11.87003906 3.15851563 11.12695312 3.17578125 C6.95123219 3.21391569 3.7505862 2.8789919 0 1 C0 0.67 0 0.34 0 0 Z " fill="#447FE6" transform="translate(261,310)"/>
<path d="M0 0 C1.58468677 0.45363171 3.16769924 0.91311452 4.75 1.375 C5.63171875 1.63023437 6.5134375 1.88546875 7.421875 2.1484375 C9.76080572 2.9209934 11.83442562 3.83625676 14 5 C13.67 5.66 13.34 6.32 13 7 C10.69 6.67 8.38 6.34 6 6 C6 5.01 6 4.02 6 3 C4.35 3 2.7 3 1 3 C0.67 2.01 0.34 1.02 0 0 Z " fill="#437AD6" transform="translate(172,286)"/>
<path d="M0 0 C2.31 0 4.62 0 7 0 C7 0.66 7 1.32 7 2 C9.97 2.33 12.94 2.66 16 3 C16 3.99 16 4.98 16 6 C14.26982492 5.54548816 12.54090123 5.08621143 10.8125 4.625 C9.84957031 4.36976563 8.88664063 4.11453125 7.89453125 3.8515625 C5.17789793 3.05233704 2.60862825 2.0968638 0 1 C0 0.67 0 0.34 0 0 Z " fill="#0B2855" transform="translate(184,290)"/>
<path d="M0 0 C-2.42130331 2.42130331 -3.80111377 2.52840504 -7.125 3.125 C-8.49011719 3.37636719 -8.49011719 3.37636719 -9.8828125 3.6328125 C-10.58148438 3.75398437 -11.28015625 3.87515625 -12 4 C-12.33 4.99 -12.66 5.98 -13 7 C-14.32 6.34 -15.64 5.68 -17 5 C-10.59616396 1.32372376 -7.42829392 -0.11981119 0 0 Z " fill="#0B265B" transform="translate(146,152)"/>
<path d="M0 0 C-2 2 -2 2 -5.0390625 2.1953125 C-6.22242188 2.17210938 -7.40578125 2.14890625 -8.625 2.125 C-9.81351563 2.10695313 -11.00203125 2.08890625 -12.2265625 2.0703125 C-13.14179687 2.04710938 -14.05703125 2.02390625 -15 2 C-9.82976131 -1.44682579 -6.02634681 -1.06347297 0 0 Z " fill="#4579D7" transform="translate(138,114)"/>
<path d="M0 0 C5.445 1.485 5.445 1.485 11 3 C7 5 7 5 4 5 C3.01 5.309375 3.01 5.309375 2 5.625 C0 6 0 6 -3 4 C-1.35 3.67 0.3 3.34 2 3 C1.34 2.67 0.68 2.34 0 2 C0 1.34 0 0.68 0 0 Z " fill="#10264B" transform="translate(176,330)"/>
<path d="M0 0 C4.46839215 -0.21278058 7.82262526 0.40861915 12 2 C12 3.32 12 4.64 12 6 C12.66 6.33 13.32 6.66 14 7 C10.24259229 7 9.27223398 5.57780207 6.5625 3.1796875 C4.48038559 1.60769112 2.57078637 1.22683409 0 1 C0 0.67 0 0.34 0 0 Z " fill="#4274C8" transform="translate(347,72)"/>
<path d="M0 0 C4.16486198 -0.30017023 6.65015727 0.54675054 10.3125 2.5 C11.19550781 2.9640625 12.07851562 3.428125 12.98828125 3.90625 C13.65214844 4.2671875 14.31601563 4.628125 15 5 C15 5.66 15 6.32 15 7 C9.57903298 5.64475824 4.9221313 3.63365987 0 1 C0 0.67 0 0.34 0 0 Z " fill="#082451" transform="translate(145,273)"/>
<path d="M0 0 C0.84820312 0.32742188 1.69640625 0.65484375 2.5703125 0.9921875 C6.20190011 2.05932828 9.10336301 2.20197218 12.875 2.125 C14.02742188 2.10695313 15.17984375 2.08890625 16.3671875 2.0703125 C17.23601562 2.04710937 18.10484375 2.02390625 19 2 C19 2.66 19 3.32 19 4 C16.39555652 4.05394705 13.79223002 4.09364469 11.1875 4.125 C10.44951172 4.14175781 9.71152344 4.15851563 8.95117188 4.17578125 C5.08753574 4.21074628 3.29096332 4.19397555 0 2 C0 1.34 0 0.68 0 0 Z " fill="#051E47" transform="translate(292,269)"/>
<path d="M0 0 C5.78898419 -0.20674944 10.42932723 0.40837921 16 2 C16 2.99 16 3.98 16 5 C10.72 3.68 5.44 2.36 0 1 C0 0.67 0 0.34 0 0 Z " fill="#071D4A" transform="translate(472,112)"/>
<path d="M0 0 C-0.33 0.99 -0.66 1.98 -1 3 C-3.375 4.0625 -3.375 4.0625 -6 5 C-6.99 5.66 -7.98 6.32 -9 7 C-9.99 6.01 -10.98 5.02 -12 4 C-10.3767313 3.3291288 -8.75132422 2.66342971 -7.125 2 C-6.22007812 1.62875 -5.31515625 1.2575 -4.3828125 0.875 C-2 0 -2 0 0 0 Z " fill="#3F6FCF" transform="translate(248,34)"/>
<path d="M0 0 C2.31 0.33 4.62 0.66 7 1 C6.67 1.99 6.34 2.98 6 4 C3.36 3.67 0.72 3.34 -2 3 C-1.34 2.01 -0.68 1.02 0 0 Z " fill="#11181B" transform="translate(301,226)"/>
<path d="M0 0 C2.83222793 3.37169992 4.52103176 6.85888893 6 11 C5.6875 13.4375 5.6875 13.4375 5 15 C5 14.01 5 13.02 5 12 C4.34 12 3.68 12 3 12 C2.49166409 10.75336669 1.99368855 9.50250613 1.5 8.25 C1.2215625 7.55390625 0.943125 6.8578125 0.65625 6.140625 C0 4 0 4 0 0 Z " fill="#3D6EC8" transform="translate(516,144)"/>
<path d="M0 0 C4.29 2.31 8.58 4.62 13 7 C8.05892532 8.23526867 6.38366065 7.43536703 2 5 C1.34 3.35 0.68 1.7 0 0 Z " fill="#051D43" transform="translate(107,420)"/>
<path d="M0 0 C0.53625 0.226875 1.0725 0.45375 1.625 0.6875 C0.305 1.0175 -1.015 1.3475 -2.375 1.6875 C-2.375 2.3475 -2.375 3.0075 -2.375 3.6875 C-5.33164519 5.1658226 -8.11729737 4.74782783 -11.375 4.6875 C-3.62774725 -0.47733516 -3.62774725 -0.47733516 0 0 Z " fill="#0A2657" transform="translate(444.375,325.3125)"/>
<path d="M0 0 C0.66 0.66 1.32 1.32 2 2 C1.625 4.625 1.625 4.625 1 7 C-0.65 7 -2.3 7 -4 7 C-4 5.68 -4 4.36 -4 3 C-3.01 2.67 -2.02 2.34 -1 2 C-0.67 1.34 -0.34 0.68 0 0 Z " fill="#111437" transform="translate(107,422)"/>
<path d="M0 0 C-1.78953185 0.83790789 -3.58169695 1.67019396 -5.375 2.5 C-6.87160156 3.19609375 -6.87160156 3.19609375 -8.3984375 3.90625 C-11 5 -11 5 -13 5 C-12 2 -12 2 -10.29296875 1.015625 C-9.59816406 0.76296875 -8.90335937 0.5103125 -8.1875 0.25 C-7.15689453 -0.14445312 -7.15689453 -0.14445312 -6.10546875 -0.546875 C-3.71856031 -1.06056958 -2.29362227 -0.76282269 0 0 Z " fill="#4677CE" transform="translate(462,318)"/>
<path d="M0 0 C1.98 0.99 3.96 1.98 6 3 C6 3.66 6 4.32 6 5 C7.98 5.66 9.96 6.32 12 7 C8.30741897 8.23086034 7.41793707 7.66728638 4 6 C1.6875 4.5625 1.6875 4.5625 0 3 C0 2.01 0 1.02 0 0 Z " fill="#3F73C9" transform="translate(126,262)"/>
<path d="M0 0 C0.66 0.99 1.32 1.98 2 3 C2.99 3.33 3.98 3.66 5 4 C5.6875 6.0625 5.6875 6.0625 6 8 C5.01 8 4.02 8 3 8 C3 7.01 3 6.02 3 5 C2.34 5 1.68 5 1 5 C1 5.99 1 6.98 1 8 C0.34 8 -0.32 8 -1 8 C-0.67 5.36 -0.34 2.72 0 0 Z " fill="#3B7ADE" transform="translate(121,376)"/>
<path d="M0 0 C1.45922693 0.11409593 2.91740598 0.24165544 4.375 0.375 C5.59316406 0.47941406 5.59316406 0.47941406 6.8359375 0.5859375 C9 1 9 1 11 3 C7.7 3 4.4 3 1 3 C0.67 2.01 0.34 1.02 0 0 Z " fill="#051B3A" transform="translate(228,345)"/>
<path d="M0 0 C0.99 0 1.98 0 3 0 C6 6.75 6 6.75 6 9 C5.34 9 4.68 9 4 9 C0 2.25 0 2.25 0 0 Z " fill="#081F49" transform="translate(513,137)"/>
<path d="M0 0 C2.64 0 5.28 0 8 0 C8.33 0.66 8.66 1.32 9 2 C6.69 2.33 4.38 2.66 2 3 C2 3.66 2 4.32 2 5 C1.34 4.67 0.68 4.34 0 4 C0 2.68 0 1.36 0 0 Z " fill="#0D1F3D" transform="translate(344,73)"/>
<path d="M0 0 C4.29 0.66 8.58 1.32 13 2 C13 2.33 13 2.66 13 3 C8.71 3 4.42 3 0 3 C0 2.01 0 1.02 0 0 Z " fill="#061E4B" transform="translate(128,430)"/>
<path d="M0 0 C3.8063457 0.67170806 7.35206816 1.72746564 11 3 C10.67 3.99 10.34 4.98 10 6 C4.25 4.125 4.25 4.125 2 3 C2 2.34 2 1.68 2 1 C1.34 0.67 0.68 0.34 0 0 Z " fill="#0A244F" transform="translate(130,264)"/>
<path d="M0 0 C3.58620225 1.65517027 6.81530529 3.66455721 10 6 C10.33 6.99 10.66 7.98 11 9 C10.34 9 9.68 9 9 9 C8.67 8.34 8.34 7.68 8 7 C7.01 6.67 6.02 6.34 5 6 C5 5.34 5 4.68 5 4 C2.525 3.01 2.525 3.01 0 2 C0 1.34 0 0.68 0 0 Z " fill="#0C2959" transform="translate(470,153)"/>
<path d="M0 0 C1.98 0 3.96 0 6 0 C3.3139714 1.79068573 1.3373411 2.66055791 -1.6875 3.625 C-2.49574219 3.88539062 -3.30398437 4.14578125 -4.13671875 4.4140625 C-4.75160156 4.60742188 -5.36648437 4.80078125 -6 5 C-6 4.01 -6 3.02 -6 2 C-4.02 2 -2.04 2 0 2 C0 1.34 0 0.68 0 0 Z " fill="#041C4B" transform="translate(240,34)"/>
<path d="M0 0 C5.75 -0.125 5.75 -0.125 8 1 C8 1.66 8 2.32 8 3 C8.66 3.33 9.32 3.66 10 4 C6.28111761 3.49287967 3.26545761 2.88391785 0 1 C0 0.67 0 0.34 0 0 Z " fill="#0C2758" transform="translate(132,388)"/>
<path d="M0 0 C-2.34591852 2.7710688 -4.14776201 3.52059284 -7.6875 4.1875 C-8.49574219 4.34605469 -9.30398438 4.50460937 -10.13671875 4.66796875 C-11.05904297 4.83232422 -11.05904297 4.83232422 -12 5 C-9.76121784 0.52243569 -4.63674314 -0.40912439 0 0 Z " fill="#0A2351" transform="translate(435,285)"/>
<path d="M0 0 C2 3.75 2 3.75 2 6 C3.32 6.33 4.64 6.66 6 7 C5.01 7.495 5.01 7.495 4 8 C1.375 6.8125 1.375 6.8125 -1 5 C-1 1 -1 1 0 0 Z " fill="#4277CF" transform="translate(292,263)"/>
<path d="M0 0 C4.60470588 1.45411765 4.60470588 1.45411765 6.3125 3.8125 C7.09802451 6.31189617 7.14472595 8.39493282 7 11 C5.24847934 8.37271902 3.62391115 5.70651859 2 3 C1.34 2.01 0.68 1.02 0 0 Z " fill="#082353" transform="translate(317,237)"/>
<path d="M0 0 C0.99 0.33 1.98 0.66 3 1 C2.01 1.33 1.02 1.66 0 2 C-1.09166275 3.93330603 -1.09166275 3.93330603 -2 6 C-2.66 6.66 -3.32 7.32 -4 8 C-4.25 5.6875 -4.25 5.6875 -4 3 C-2.1875 1.125 -2.1875 1.125 0 0 Z " fill="#4779D3" transform="translate(249,75)"/>
<path d="M0 0 C2 1 2 1 3.125 3.375 C4 6 4 6 4 9 C3.01 9 2.02 9 1 9 C0.67 6.03 0.34 3.06 0 0 Z " fill="#4072C9" transform="translate(395,62)"/>
<path d="M0 0 C0.33 0.99 0.66 1.98 1 3 C1.99 3 2.98 3 4 3 C4 3.66 4 4.32 4 5 C1.36 5 -1.28 5 -4 5 C-2.68 3.35 -1.36 1.7 0 0 Z " fill="#417EE1" transform="translate(228,43)"/>
<path d="M0 0 C1.65 0 3.3 0 5 0 C5 1.32 5 2.64 5 4 C5.99 4.33 6.98 4.66 8 5 C7.67 5.66 7.34 6.32 7 7 C5.82780457 6.21654285 4.66236332 5.42297164 3.5 4.625 C2.8503125 4.18414062 2.200625 3.74328125 1.53125 3.2890625 C1.0259375 2.86367188 0.520625 2.43828125 0 2 C0 1.34 0 0.68 0 0 Z " fill="#0B204C" transform="translate(377,41)"/>
<path d="M0 0 C1.32 0 2.64 0 4 0 C3.67 1.65 3.34 3.3 3 5 C1.68 4.67 0.36 4.34 -1 4 C-0.67 2.68 -0.34 1.36 0 0 Z " fill="#121238" transform="translate(104,115)"/>
<path d="M0 0 C0 3 0 3 -2.375 5.6875 C-5 8 -5 8 -7 8 C-7 7.34 -7 6.68 -7 6 C-6.34 6 -5.68 6 -5 6 C-4.731875 5.38125 -4.46375 4.7625 -4.1875 4.125 C-3 2 -3 2 0 0 Z " fill="#4A7DE0" transform="translate(511,406)"/>
<path d="M0 0 C0.99 0.33 1.98 0.66 3 1 C2.01 1.33 1.02 1.66 0 2 C0.33 3.65 0.66 5.3 1 7 C0.34 7 -0.32 7 -1 7 C-1 6.34 -1 5.68 -1 5 C-1.66 5 -2.32 5 -3 5 C-2.625 3.0625 -2.625 3.0625 -2 1 C-1.34 0.67 -0.68 0.34 0 0 Z " fill="#3681E6" transform="translate(432,323)"/>
<path d="M0 0 C4.95 1.98 4.95 1.98 10 4 C9.01 4.66 8.02 5.32 7 6 C3.535 4.02 3.535 4.02 0 2 C0 1.34 0 0.68 0 0 Z " fill="#4676D2" transform="translate(148,275)"/>
<path d="M0 0 C0.66 0.33 1.32 0.66 2 1 C0.25 3.0625 0.25 3.0625 -2 5 C-4.25 4.75 -4.25 4.75 -6 4 C-3.94766315 1.7522025 -2.99332739 0.9977758 0 0 Z " fill="#4476CC" transform="translate(296,233)"/>
<path d="M0 0 C0.99 0 1.98 0 3 0 C4.17571451 3.67410785 4.07366746 7.16929183 4 11 C3.67 11 3.34 11 3 11 C2.01 7.37 1.02 3.74 0 0 Z " fill="#4172C8" transform="translate(360,80)"/>
<path d="M0 0 C6.4 0.49230769 6.4 0.49230769 9.4375 3.0625 C10.2109375 4.0215625 10.2109375 4.0215625 11 5 C9.53932801 4.54917531 8.08151968 4.08906463 6.625 3.625 C5.81289063 3.36976562 5.00078125 3.11453125 4.1640625 2.8515625 C2 2 2 2 0 0 Z " fill="#0C2A63" transform="translate(361,34)"/>
<path d="M0 0 C2.31 0.33 4.62 0.66 7 1 C7 1.66 7 2.32 7 3 C4.69 3 2.38 3 0 3 C0 2.01 0 1.02 0 0 Z " fill="#15141F" transform="translate(208,343)"/>
<path d="M0 0 C1.98 0.495 1.98 0.495 4 1 C4 1.99 4 2.98 4 4 C2.35 4 0.7 4 -1 4 C-0.67 2.68 -0.34 1.36 0 0 Z " fill="#3384FC" transform="translate(309,264)"/>
<path d="M0 0 C0.33 0 0.66 0 1 0 C1.66 3.96 2.32 7.92 3 12 C2.01 11.67 1.02 11.34 0 11 C0 7.37 0 3.74 0 0 Z " fill="#457DD9" transform="translate(122,368)"/>
<path d="M0 0 C0 0.99 0 1.98 0 3 C-2.64 3.33 -5.28 3.66 -8 4 C-5.29881977 1.17603885 -4.05589853 0 0 0 Z " fill="#0B3069" transform="translate(483,308)"/>
<path d="M0 0 C2.97 0 5.94 0 9 0 C5.39338934 1.80330533 2.91606575 2.46599103 -1 3 C-0.67 2.01 -0.34 1.02 0 0 Z " fill="#071E4D" transform="translate(369,303)"/>
<path d="M0 0 C0.66 0 1.32 0 2 0 C1.49287967 3.71888239 0.88391785 6.73454239 -1 10 C-1.125 3.375 -1.125 3.375 0 0 Z " fill="#062155" transform="translate(85,150)"/>
<path d="M0 0 C1.32 0 2.64 0 4 0 C4 0.66 4 1.32 4 2 C5.32 2.33 6.64 2.66 8 3 C8 3.99 8 4.98 8 6 C6.66402348 5.19185349 5.331275 4.37836819 4 3.5625 C3.2575 3.11003906 2.515 2.65757813 1.75 2.19140625 C1.1725 1.79824219 0.595 1.40507813 0 1 C0 0.67 0 0.34 0 0 Z " fill="#082657" transform="translate(494,120)"/>
</svg>
